<svg width="1180" height="413" viewBox="0 0 1180 413" fill="none" xmlns="http://www.w3.org/2000/svg">
<path d="M187.198 194.218C188.248 175.479 203.637 164.576 228.469 164.576C259.247 164.576 270.09 176.842 270.09 201.714V234.082C270.09 239.192 271.839 240.896 277.784 240.896V259.976H268.341C254.701 259.976 248.055 257.25 244.908 247.029H244.558C238.612 255.887 229.169 260.657 215.528 260.657C195.593 260.657 183.001 250.436 183.001 233.059C183.001 222.157 187.898 214.661 197.341 209.55C207.484 204.439 222.174 203.417 242.459 202.736V197.625C242.459 187.404 237.913 181.952 228.469 181.952C219.026 181.952 214.829 187.063 214.479 193.877H187.198V194.218ZM242.809 220.453V217.387C227.77 218.409 220.425 219.431 215.878 222.497C212.381 224.542 210.982 227.949 210.982 232.037C210.982 238.852 215.878 243.622 223.573 243.622C233.716 243.281 242.809 235.785 242.809 220.453Z" fill="white"/>
<path d="M298.418 122.328H326.748V180.249H327.097C331.994 171.731 341.787 164.236 356.127 164.236C378.161 164.236 394.6 178.205 394.6 212.617C394.6 244.644 378.511 262.021 354.028 262.021C339.688 262.021 330.945 255.888 325.698 247.029H325.349V259.976H298.418V122.328ZM365.92 212.958C365.92 193.196 359.624 183.316 345.984 183.316C334.442 183.316 326.398 192.515 326.398 208.188V218.409C326.398 233.06 332.693 243.963 345.984 243.963C358.575 243.622 365.92 233.06 365.92 212.958Z" fill="white"/>
<path d="M416.63 166.279H443.561V186.04H443.911C449.157 172.071 462.798 164.916 475.738 164.916H477.487V190.129H472.591C455.103 190.129 445.31 195.921 445.31 213.979V260.316H416.98V166.279H416.63Z" fill="white"/>
<path d="M526.482 166.181V265.967C526.482 274.99 524.287 281.576 519.896 285.726C515.505 289.937 508.708 292.042 499.506 292.042C497.641 292.042 496.679 292.012 496.618 291.952V281.847H499.054C504.648 281.847 508.618 280.644 510.964 278.238C513.37 275.832 514.573 271.802 514.573 266.148V166.181H526.482ZM520.527 147.235C518.362 147.235 516.497 146.483 514.934 144.979C513.37 143.415 512.588 141.521 512.588 139.295C512.588 137.13 513.37 135.295 514.934 133.791C516.497 132.228 518.362 131.446 520.527 131.446C522.753 131.446 524.648 132.228 526.211 133.791C527.775 135.295 528.557 137.13 528.557 139.295C528.557 141.521 527.775 143.415 526.211 144.979C524.648 146.483 522.753 147.235 520.527 147.235Z" fill="white"/>
<path d="M616.975 248.464C609.156 257.186 598.81 261.547 585.939 261.547C573.067 261.547 562.721 257.186 554.902 248.464C547.083 239.683 543.173 227.894 543.173 213.097C543.173 198.301 547.083 186.542 554.902 177.82C562.782 169.038 573.127 164.648 585.939 164.648C598.81 164.648 609.156 169.038 616.975 177.82C624.795 186.542 628.704 198.301 628.704 213.097C628.704 227.894 624.795 239.683 616.975 248.464ZM563.654 240.886C569.187 247.622 576.616 250.99 585.939 250.99C595.262 250.99 602.69 247.622 608.224 240.886C613.817 234.149 616.614 224.886 616.614 213.097C616.614 201.308 613.817 192.045 608.224 185.308C602.69 178.572 595.262 175.204 585.939 175.204C576.616 175.204 569.187 178.572 563.654 185.308C558.12 192.045 555.353 201.308 555.353 213.097C555.353 224.886 558.12 234.149 563.654 240.886Z" fill="white"/>
<path d="M719.829 166.181V260.013H708.551V242.6H708.28C705.754 248.434 701.754 253.066 696.281 256.494C690.867 259.862 684.492 261.547 677.154 261.547C666.989 261.547 658.929 258.479 652.974 252.344C647.019 246.149 644.042 237.758 644.042 227.172V166.181H656.042V225.097C656.042 233.397 658.147 239.773 662.357 244.224C666.628 248.675 672.703 250.9 680.582 250.9C688.762 250.9 695.349 248.254 700.341 242.961C705.393 237.668 707.92 230.63 707.92 221.849V166.181H719.829Z" fill="white"/>
<path d="M740.4 260.013V166.181H751.677V182.872H751.948C753.692 177.158 756.64 172.707 760.79 169.52C764.94 166.272 769.902 164.648 775.677 164.648C777.962 164.648 780.428 164.978 783.075 165.64V177.369C781.15 176.467 778.173 176.016 774.143 176.016C767.527 176.016 762.233 178.361 758.264 183.053C754.294 187.745 752.309 193.91 752.309 201.549V260.013H740.4Z" fill="white"/>
<path d="M795.977 260.013V166.181H807.255V183.504H807.525C809.991 177.67 813.901 173.068 819.254 169.7C824.667 166.332 831.073 164.648 838.471 164.648C848.757 164.648 856.847 167.745 862.741 173.94C868.696 180.136 871.673 188.557 871.673 199.203V260.013H859.764V201.097C859.764 192.917 857.599 186.572 853.268 182.06C848.997 177.549 842.922 175.294 835.043 175.294C826.923 175.294 820.367 177.97 815.375 183.324C810.382 188.677 807.886 195.714 807.886 204.436V260.013H795.977Z" fill="white"/>
<path d="M922.018 251.261C930.258 251.261 937.205 248.705 942.859 243.592C948.513 238.48 951.34 232.194 951.34 224.736V214.36L923.551 216.255C916.153 216.736 910.469 218.54 906.499 221.668C902.529 224.736 900.545 228.856 900.545 234.029C900.545 239.141 902.529 243.291 906.499 246.479C910.469 249.667 915.642 251.261 922.018 251.261ZM919.582 261.547C910.319 261.547 902.8 259.02 897.026 253.968C891.312 248.855 888.455 242.209 888.455 234.029C888.455 225.969 891.342 219.593 897.116 214.901C902.951 210.21 911.281 207.503 922.108 206.781L951.34 204.977V196.857C951.34 190.06 949.295 184.767 945.205 180.978C941.115 177.128 935.431 175.204 928.153 175.204C921.296 175.204 915.702 176.798 911.371 179.985C907.101 183.173 904.454 187.624 903.432 193.338H891.883C892.545 184.797 896.154 177.88 902.71 172.587C909.326 167.294 917.897 164.648 928.423 164.648C939.13 164.648 947.611 167.444 953.866 173.038C960.121 178.632 963.249 186.211 963.249 195.774V260.013H951.881V242.149H951.611C949.024 247.983 944.784 252.675 938.889 256.223C932.995 259.772 926.559 261.547 919.582 261.547Z" fill="white"/>
<path d="M984.091 260.013V129.822H996V260.013H984.091Z" fill="white"/>
</svg>
