<svg width="1180" height="414" viewBox="0 0 1180 414" fill="none" xmlns="http://www.w3.org/2000/svg">
<path fill-rule="evenodd" clip-rule="evenodd" d="M557.157 194.505C574.91 194.505 583.293 208.273 583.293 234.825C583.293 262.362 573.923 276.621 557.65 276.13C539.897 276.13 531.514 261.378 531.514 241.709V227.941C531.514 207.289 541.869 194.505 557.157 194.505ZM531.514 111.896H493.542V298.748H529.541V281.047H530.034C536.445 293.34 548.28 301.699 567.512 301.699C600.059 301.699 621.264 278.096 621.264 234.825C621.264 187.621 600.059 168.936 570.471 168.936C551.732 168.936 538.417 178.77 532.007 190.571H531.514V111.896ZM419.079 241.215V245.149C419.079 265.801 406.751 276.127 393.929 276.618C383.573 276.618 377.162 270.226 377.162 260.884C377.162 255.475 378.642 251.049 383.08 248.099C388.998 244.165 399.354 242.198 419.079 241.215ZM345.139 208.762C345.128 208.925 345.118 209.089 345.109 209.253V208.762H345.139ZM381.108 208.762H345.139C346.848 183.495 367.019 168.933 399.847 168.933C440.777 168.933 455.078 185.651 455.078 219.579V263.342C455.078 270.226 457.051 272.685 465.434 272.685V298.746H453.105C434.859 298.746 425.983 295.304 422.038 281.044H421.545C413.655 292.845 401.326 299.729 383.08 299.729C356.451 299.729 339.684 285.961 339.684 261.867C339.684 247.115 346.095 236.789 358.916 229.905C372.231 223.021 391.463 221.546 418.586 220.563V213.679C418.586 199.911 412.668 192.535 399.847 192.535C387.518 192.535 381.601 199.419 381.108 208.762ZM651.839 171.391H687.344V197.944H687.837C694.741 178.767 712.987 168.933 729.754 168.933H731.727V202.861H725.316C702.138 202.861 689.317 210.729 689.317 234.823V297.762H651.839V171.391ZM791.397 200.405V170.903H810.629V200.405H839.725V218.599H810.629V248.594H791.397V218.599H762.302V200.405H791.397Z" fill="white"/>
</svg>
