<svg width="1180" height="414" viewBox="0 0 1180 414" fill="none" xmlns="http://www.w3.org/2000/svg">
<path d="M487.317 64.4567C487.317 57.8853 492.506 52.8303 499.252 52.8303C505.998 52.8303 511.187 57.8853 511.187 64.4567C511.187 71.0281 505.998 76.0831 499.252 76.0831C493.025 76.0831 487.317 70.5226 487.317 64.4567Z" fill="white"/>
<path d="M547.51 64.4567C547.51 57.8853 552.699 52.8303 559.445 52.8303C566.191 52.8303 571.38 57.8853 571.38 64.4567C571.38 71.0281 566.191 76.0831 559.445 76.0831C552.699 76.0831 547.51 70.5226 547.51 64.4567Z" fill="white"/>
<path d="M607.703 64.4567C607.703 57.8853 612.892 52.8303 619.638 52.8303C626.384 52.8303 631.573 57.8853 631.573 64.4567C631.573 71.0281 626.384 76.0831 619.638 76.0831C612.892 76.0831 607.703 70.5226 607.703 64.4567Z" fill="white"/>
<path d="M667.378 64.4567C667.378 57.8853 672.567 52.8303 679.313 52.8303C686.059 52.8303 691.248 57.8853 691.248 64.4567C691.248 71.0281 686.059 76.0831 679.313 76.0831C672.567 76.0831 667.378 70.5226 667.378 64.4567Z" fill="white"/>
<path d="M377.311 259.578C378.867 231.776 401.699 215.6 438.541 215.6C484.205 215.6 500.291 233.798 500.291 270.699V318.721C500.291 326.303 502.885 328.831 511.707 328.831V357.138H497.696C477.459 357.138 467.6 353.094 462.93 337.93H462.411C453.589 351.072 439.579 358.149 419.342 358.149C389.764 358.149 371.084 342.985 371.084 317.204C371.084 301.028 378.349 289.908 392.359 282.325C407.407 274.743 429.201 273.226 459.297 272.215V264.633C459.297 249.468 452.552 241.38 438.541 241.38C424.531 241.38 418.304 248.963 417.785 259.072H377.311V259.578ZM459.816 298.501V293.952C437.503 295.468 426.606 296.985 419.861 301.534C414.672 304.567 412.596 309.622 412.596 315.688C412.596 325.798 419.861 332.875 431.277 332.875C446.325 332.369 459.816 321.248 459.816 298.501Z" fill="white"/>
<path d="M542.323 152.917H584.354V238.851H584.873C592.138 226.213 606.667 215.093 627.942 215.093C660.633 215.093 685.021 235.818 685.021 286.873C685.021 334.389 661.152 360.17 624.829 360.17C603.554 360.17 590.581 351.071 582.798 337.928H582.279V357.137H542.323V152.917ZM642.471 287.378C642.471 258.06 633.131 243.4 612.894 243.4C595.77 243.4 583.835 257.049 583.835 280.301V295.466C583.835 317.202 593.176 333.378 612.894 333.378C631.574 332.873 642.471 317.202 642.471 287.378Z" fill="white"/>
<path d="M717.711 218.126H757.666V247.445H758.185C765.969 226.72 786.206 216.104 805.405 216.104H808V253.511H800.735C774.79 253.511 760.261 262.105 760.261 288.896V357.643H718.23V218.126H717.711Z" fill="white"/>
</svg>
