<svg width="1180" height="414" viewBox="0 0 1180 414" fill="none" xmlns="http://www.w3.org/2000/svg">
<path fill-rule="evenodd" clip-rule="evenodd" d="M263.338 88.2273H258.417L200.886 236.879L189 268.571H197.429L206.188 242.862C207.345 238.638 208.834 234.4 209.744 231.946L219.587 207.452H273.181L294.527 268.571H327.389L263.338 88.2273ZM220.953 201.939L247.749 133.66L271.261 201.939H220.953Z" fill="white"/>
<path fill-rule="evenodd" clip-rule="evenodd" d="M516.021 168.899C505.083 154.591 489.225 148.245 476.38 148.245C464.889 148.245 454.774 154.318 448.759 164.774V95.9133C446.549 95.9133 444.583 95.9712 442.39 96.0357C439.626 96.117 436.501 96.2093 432.076 96.2093H404.737V100.894H421.961V164.774C415.946 154.318 405.832 148.245 394.353 148.245C381.496 148.245 365.637 154.591 354.7 168.899C347.317 178.539 341.854 192.303 341.854 209.105C341.854 227.825 348.141 242.693 356.348 252.878C368.638 268.289 383.415 271.597 394.623 271.597C411.023 271.597 418.407 262.516 421.961 255.639L421.716 327.227H448.636L448.759 255.639C452.315 262.516 459.696 271.597 476.11 271.597C487.318 271.597 502.081 268.289 514.385 252.878C522.579 242.693 528.879 227.825 528.879 209.105C528.879 192.303 523.403 178.539 516.021 168.899ZM421.961 232.781C421.961 262.243 406.103 266.642 398.45 266.642C385.052 266.642 372.478 255.639 372.478 231.678V189.281C372.478 165.32 383.956 153.215 397.355 153.215C409.658 153.215 421.961 163.399 421.961 184.87V232.781ZM498.256 231.678C498.256 255.639 485.669 266.642 472.27 266.642C464.619 266.642 448.759 262.243 448.759 232.781V184.87C448.759 163.399 461.062 153.215 473.366 153.215C486.763 153.215 498.256 165.32 498.256 189.281V231.678Z" fill="white"/>
<path d="M583.976 151.279L584.371 238.465L630.853 174.609V151.279H657.687L657.427 268.572H630.767L630.853 183.975L584.371 247.819L584.359 268.572H557.561L557.942 151.279H583.976Z" fill="white"/>
<path d="M723.787 263.89L723.59 151.279H696.67V268.572H859.432V151.279H832.611V263.89H791.603L791.517 151.279H764.35L764.794 263.89H723.787Z" fill="white"/>
<path fill-rule="evenodd" clip-rule="evenodd" d="M947.709 148.255C967.395 148.255 980.794 154.587 985.445 162.293C989 168.079 989 175.513 989 182.116V271.606H961.945V253.927C958.328 256.999 951.697 262.301 946.344 265.275C939.775 268.855 930.486 271.606 922.009 271.606C911.071 271.606 903.958 267.195 900.417 264.172C892.75 257.841 890.29 250.135 890.29 241.314C890.29 227.821 896.577 219.013 907.515 212.408C911.625 209.93 925.563 202.497 953.185 202.497H961.945V196.898H962.203V171.647C962.203 166.145 961.65 160.36 957.011 156.506C953.997 154.03 948.534 153.212 943.885 153.212C940.328 153.212 936.231 153.757 932.947 154.587C926.929 156.234 926.105 159.269 926.105 161.475C926.105 163.015 927.064 164.67 928.318 166.832C929.072 168.134 929.933 169.619 930.756 171.374C935.948 182.947 929.39 194.778 916.545 194.778C908.068 194.778 899.038 189.549 899.038 178.547C899.038 166.703 906.419 160.087 914.896 155.404C925.563 149.63 936.771 148.255 947.709 148.255ZM937.867 260.035C944.424 260.035 947.709 258.114 952.632 255.078C957.75 251.808 961.058 249.318 961.945 246.617V206.895H957.823C934.04 206.895 926.106 215.159 923.644 220.115C921.467 224.526 920.914 232.777 920.914 238.836C920.914 243.791 921.467 250.396 925.563 255.078C929.39 259.204 933.771 260.035 937.867 260.035Z" fill="white"/>
</svg>
