<svg width="1180" height="414" viewBox="0 0 1180 414" fill="none" xmlns="http://www.w3.org/2000/svg">
<g clip-path="url(#clip0_10198_6343)">
<path d="M496.405 191.569V215.734C488.925 231.371 476.41 244.033 460.873 251.684C460.873 251.684 449.845 257.043 437.328 257.043C408.935 257.043 380.078 234.805 380.078 201.445C380.078 159.712 409.888 138.627 423.079 132.553C430.385 129.079 438.37 127.269 446.458 127.253C462.818 127.253 479.33 135.09 490.398 147.848L477.517 158.295C466.8 146.444 451.459 139.886 436.879 141.449C404.999 144.854 389.075 166.622 392.628 198.67C395.214 222.021 421.226 248.027 447.715 244.974C464.101 243.079 478.867 229.407 478.867 229.407V205.036H436.429V191.569H496.405Z" fill="white"/>
<path d="M774.108 205.824H773.797C773.597 205.921 773.392 206.008 773.182 206.082V205.824H773.797C786.936 200.061 798.513 189.065 798.513 168.211C798.513 109.984 713.22 132.228 713.22 132.228V257.043H730.784V212.766L758.231 209.09L783.668 257.043H801.258L774.108 205.824ZM730.784 135.607C746.694 134.003 781.114 134.547 782.179 168.509C783.171 200.405 755.234 203.982 730.784 205.791V135.607Z" fill="white"/>
<path d="M773.797 205.824C773.597 205.921 773.392 206.008 773.182 206.082V205.824H773.797Z" fill="white"/>
<path d="M773.797 205.824C773.597 205.921 773.392 206.008 773.182 206.082V205.824H773.797Z" fill="white"/>
<path d="M286.9 105.645H276.904L255.886 71.0859H275.772L286.9 105.645ZM344.031 257.043H323.847L308.856 214.085H255.509L240.724 257.043H230L275.819 129.194H296.088L344.031 257.043ZM306.184 206.427L282.004 137.123L258.149 206.427H306.184Z" fill="white"/>
<path d="M892.869 105.645H882.873L861.856 71.0859H881.735L892.869 105.645ZM950 257.043H929.81L914.826 214.085H861.472L846.693 257.043H835.976L881.795 129.194H902.051L950 257.043ZM912.153 206.427L887.967 137.123L864.111 206.427H912.153Z" fill="white"/>
<path d="M604.799 127.2C596.708 127.216 588.722 129.026 581.413 132.5C568.248 138.601 538.413 159.692 538.413 201.392C538.413 234.752 567.269 256.99 595.663 256.99C608.179 256.99 619.201 251.631 619.201 251.631C644.882 238.853 662.042 213.21 662.042 182.738C662.075 150.829 633.199 127.2 604.799 127.2ZM606.049 244.92C579.534 247.683 553.549 221.967 550.962 198.617C547.416 166.582 563.34 144.801 595.22 141.396C619.465 138.799 645.848 158.685 649.526 187.998C652.582 212.342 638.703 241.516 606.049 244.92Z" fill="white"/>
<path d="M616.991 328.128H611.619C612.583 329.873 613.059 331.846 612.995 333.838C612.704 339.032 608.212 343.079 602.781 343.079C597.158 343.079 592.587 338.747 592.587 333.421C592.594 331.721 593.057 330.053 593.928 328.593C594.798 327.133 596.044 325.934 597.535 325.121C595.927 323.796 595.167 321.941 595.167 319.358C595.17 317.329 595.976 315.384 597.408 313.949C598.84 312.514 600.782 311.705 602.808 311.7C604.582 311.693 606.304 312.304 607.678 313.428C609.053 314.551 609.994 316.118 610.343 317.861H606.83C606.534 317.032 605.988 316.316 605.267 315.813C604.546 315.309 603.686 315.043 602.808 315.052C602.243 315.052 601.685 315.163 601.164 315.38C600.643 315.596 600.17 315.914 599.772 316.314C599.373 316.714 599.058 317.189 598.843 317.711C598.629 318.233 598.519 318.793 598.521 319.358C598.521 321.636 599.387 322.915 601.445 323.577V327.333C599.999 327.586 598.684 328.329 597.721 329.438C596.757 330.546 596.203 331.952 596.152 333.421C596.152 336.806 599.143 339.582 602.768 339.582C606.254 339.582 609.139 337.025 609.33 333.779C609.449 331.732 609.165 329.645 606.486 328.009L606.089 327.757V324.69H616.978L616.991 328.128Z" fill="white"/>
<path d="M464.452 316.37L454.939 341.244H453.616L446.339 323.895L439.062 341.244H437.739L428.226 316.37H432.559L438.665 332.931L445.664 315.993H447.033L454.066 332.931L460.172 316.37H464.452Z" fill="white"/>
<path d="M479.965 316.37H483.888V340.834H479.965V316.37Z" fill="white"/>
<path d="M521.285 316.37V341.244H519.962L505.084 324.266V340.827H501.161V315.966H502.53L517.375 332.865V316.37H521.285Z" fill="white"/>
<path d="M538.565 316.37H554.627V319.894H542.488V326.154H552.907V329.566H542.488V337.349H555.057V340.867H538.519L538.565 316.37Z" fill="white"/>
<path d="M648.805 316.37H656.466C658.887 316.317 661.287 316.844 663.465 317.907C665.385 318.87 666.991 320.362 668.095 322.206C669.217 324.134 669.787 326.334 669.743 328.565C669.781 330.789 669.212 332.982 668.095 334.905C666.986 336.77 665.368 338.28 663.432 339.257C661.268 340.344 658.872 340.885 656.452 340.834H648.792L648.805 316.37ZM656.432 337.316C658.139 337.354 659.829 336.972 661.354 336.203C662.714 335.505 663.838 334.422 664.589 333.09C665.356 331.707 665.746 330.147 665.721 328.565C665.757 326.979 665.366 325.411 664.589 324.028C663.836 322.727 662.718 321.677 661.374 321.007C659.838 320.254 658.142 319.884 656.432 319.927H652.728V337.349L656.432 337.316Z" fill="white"/>
<path d="M685.527 316.37H701.59V319.894H689.45V326.154H699.903V329.566H689.45V337.349H702.02V340.867H685.481L685.527 316.37Z" fill="white"/>
<path d="M717.692 316.37H721.615V337.349H732.795V340.867H717.692V316.37Z" fill="white"/>
<path d="M747.865 316.37H751.788V340.834H747.865V316.37Z" fill="white"/>
</g>
<defs>
<clipPath id="clip0_10198_6343">
<rect width="720" height="272" fill="white" transform="translate(230 71.0859)"/>
</clipPath>
</defs>
</svg>
