<svg width="1180" height="415" viewBox="0 0 1180 415" fill="none" xmlns="http://www.w3.org/2000/svg">
<path d="M206.386 189.418L192.306 220.667C191.223 224.301 192.848 225.754 195.736 225.754H220.465C225.519 225.754 226.241 224.119 224.797 219.759L214.328 190.144C214.147 189.963 214.147 189.963 214.147 189.781C212.884 186.147 211.62 184.149 210.357 184.149C209.093 184.149 207.83 185.966 206.386 189.418ZM239.598 169.796L267.215 241.197C270.284 249.191 279.851 251.008 279.851 259.002C279.851 265.542 267.576 268.086 255.122 268.086C242.486 268.086 230.212 265.542 230.212 259.002C230.212 254.096 233.642 250.463 233.642 246.102C233.1 243.014 231.476 241.197 222.27 241.197H193.931C185.086 241.197 182.74 242.287 181.476 244.831L181.296 245.012C178.588 250.826 189.057 252.825 189.057 258.82C189.057 265.361 179.13 268.086 167.938 268.086C156.928 268.086 147 265.361 147 258.82C147 252.825 159.274 246.829 161.982 240.834L193.57 171.068C196.097 165.254 188.516 161.075 189.057 155.262C189.599 148.539 202.415 147.086 216.855 147.086C222.45 147.086 243.389 147.449 243.389 156.352C243.389 162.347 237.793 163.619 239.598 169.796Z" fill="white"/>
<path d="M388.892 242.65L383.837 214.853C382.574 208.676 381.491 203.952 376.617 203.952C372.105 203.952 370.3 207.768 370.48 216.67L371.022 241.197C371.022 247.556 378.422 253.006 378.422 258.82C378.422 265.542 368.314 268.086 355.679 268.086C343.044 268.086 332.935 265.542 332.935 258.82C332.935 253.006 340.336 247.556 340.336 241.197V216.67C340.336 208.858 337.809 203.952 331.672 203.952C325.896 203.952 321.925 208.858 321.925 216.67V241.197C321.925 247.556 329.325 253.006 329.325 258.82C329.325 265.542 319.217 268.086 306.582 268.086C293.947 268.086 283.839 265.542 283.839 258.82C283.839 253.006 291.239 247.556 291.239 241.197V209.039C291.239 202.499 284.922 202.317 283.658 196.685C282.214 190.326 290.517 184.694 301.889 181.969C306.943 180.879 310.553 180.152 313.261 180.152C317.593 180.152 319.578 181.787 320.842 185.239C321.022 185.966 321.203 186.693 321.383 187.419C322.286 190.69 323.73 192.143 325.174 192.143C326.257 192.143 327.34 191.235 328.423 189.599C331.491 185.057 337.268 180.152 346.654 180.152C355.859 180.152 361.635 182.877 365.246 189.599C366.69 191.961 367.953 193.051 369.217 193.051C370.3 193.051 371.563 191.961 373.007 189.599C376.076 185.057 381.13 180.152 390.516 180.152C404.415 180.152 409.108 189.963 413.44 208.494L421.563 240.652C424.27 251.553 431.671 251.553 431.671 258.82C431.671 265.542 421.382 268.086 408.747 268.086C396.112 268.086 386.003 265.542 386.003 258.82C386.003 253.006 390.697 253.006 388.892 242.65Z" fill="white"/>
<path d="M469.843 220.485C477.424 220.485 482.298 213.036 482.298 206.132C482.298 197.775 479.049 193.233 473.814 193.233C469.121 193.233 462.803 201.045 462.803 211.22C462.803 216.125 465.511 220.485 469.843 220.485ZM505.944 239.562C510.456 237.927 514.427 242.469 512.983 248.646C510.637 258.457 496.016 268.086 475.8 268.086C452.154 268.086 430.313 253.551 430.313 224.664C430.313 194.868 453.598 180.152 475.258 180.152C499.265 180.152 512.442 189.963 512.442 204.679C512.442 219.577 497.28 225.391 475.8 229.933C470.204 231.205 470.926 235.928 473.273 237.927C477.785 241.924 483.381 243.922 488.976 243.922C496.919 243.922 502.334 240.834 505.944 239.562Z" fill="white"/>
<path d="M556.896 241.197C556.896 247.556 564.297 253.006 564.297 258.82C564.297 265.542 554.189 268.086 541.554 268.086C528.918 268.086 518.63 265.542 518.63 258.82C518.63 253.006 526.03 247.556 526.03 241.197V209.039C526.03 202.499 519.893 202.317 518.63 196.685C517.186 190.326 525.308 184.694 536.861 181.969C541.734 180.879 545.344 180.152 548.052 180.152C552.203 180.152 554.369 181.787 555.633 185.239C556.174 186.329 556.535 187.601 556.716 189.236C557.438 191.961 558.341 193.233 559.604 193.233C560.326 193.233 561.229 192.688 562.131 191.416C567.546 184.876 572.42 180.152 582.528 180.152C597.69 180.152 604.188 196.14 598.051 209.948C594.622 217.578 589.207 221.03 583.972 221.03C579.279 221.03 574.766 218.123 572.239 213.036C569.351 207.404 566.644 203.952 562.312 203.952C557.98 203.952 556.896 207.768 556.896 216.67V241.197Z" fill="white"/>
<path d="M642.93 156.715C644.735 162.711 640.584 169.433 629.032 172.521C625.783 173.43 622.714 173.793 619.826 173.793C612.425 173.793 606.649 171.068 605.386 166.708C603.761 160.712 608.093 153.99 619.284 150.901C622.533 149.993 625.783 149.629 628.671 149.629C636.252 149.629 641.847 152.355 642.93 156.715ZM642.389 241.197C642.389 247.556 649.97 253.006 649.97 258.82C649.97 265.542 639.681 268.086 627.046 268.086C614.411 268.086 604.303 265.542 604.303 258.82C604.303 253.006 611.703 247.556 611.703 241.197V208.676C611.703 202.317 605.386 202.135 604.122 196.322C602.678 190.144 610.981 184.512 622.353 181.787C626.685 180.879 630.115 180.152 633.003 180.152C639.501 180.152 642.389 183.241 642.389 191.598V241.197Z" fill="white"/>
<path d="M727.837 239.199C732.35 237.563 736.321 242.105 734.877 248.283C732.531 258.093 718.451 268.086 699.137 268.086C675.672 268.086 653.651 253.551 653.651 224.664C653.651 194.868 676.935 180.152 698.596 180.152C723.505 180.152 737.585 192.143 737.585 203.407C737.585 213.4 730.906 217.942 723.144 217.942C707.08 217.942 707.621 193.233 698.415 193.233C692.278 193.233 685.961 199.229 685.961 213.4C685.961 231.568 697.332 243.922 711.051 243.922C718.812 243.922 724.227 240.47 727.837 239.199Z" fill="white"/>
<path d="M793.218 234.475L791.954 229.569C790.691 225.754 787.983 223.574 784.012 223.574C778.417 223.574 774.806 228.843 774.806 236.292C774.806 243.559 779.319 249.009 785.817 249.009C792.857 249.009 794.842 241.924 793.398 235.928C793.218 235.383 793.218 235.02 793.218 234.475ZM748.994 190.69C756.937 182.877 769.752 180.152 783.11 180.152C801.701 180.152 814.698 190.326 819.03 208.494L825.889 234.111C827.513 240.652 829.499 245.557 833.831 245.557C837.441 245.557 839.427 245.921 839.968 249.191C841.051 257.73 834.734 268.086 819.03 268.086C811.449 268.086 805.853 264.816 801.521 258.82C800.257 257.367 799.355 256.458 798.272 256.458C797.55 256.458 796.647 257.003 795.925 258.093C793.037 261.545 786.72 268.086 772.821 268.086C754.049 268.086 742.316 256.822 742.316 241.924C742.316 223.211 760.186 212.128 779.319 212.128C782.568 212.128 784.734 212.491 785.998 212.491C787.803 212.491 787.803 211.765 786.9 207.586C784.193 196.14 782.749 193.051 778.417 193.051C775.167 193.051 771.918 197.412 768.669 201.59C765.42 205.587 762.532 210.129 754.41 210.129C745.204 210.129 740.15 199.229 748.994 190.69Z" fill="white"/>
<path d="M881.415 241.197C881.415 247.556 888.815 253.006 888.815 258.82C888.815 265.542 878.707 268.086 866.072 268.086C853.437 268.086 843.148 265.542 843.148 258.82C843.148 253.006 850.729 247.556 850.729 241.197V209.039C850.729 202.499 844.412 202.317 843.148 196.685C841.704 190.326 849.827 184.694 861.379 181.969C866.253 180.879 869.863 180.152 872.57 180.152C878.707 180.152 880.512 183.967 881.234 189.236C881.776 191.235 882.137 192.143 882.859 192.143C883.581 192.143 884.483 191.235 885.747 189.599C889.177 185.421 895.494 180.152 904.88 180.152C918.779 180.152 921.848 189.963 926.18 208.494L934.302 240.652C937.01 251.553 944.23 251.553 944.23 258.82C944.23 265.542 934.122 268.086 921.487 268.086C908.851 268.086 898.743 265.542 898.743 258.82C898.743 253.006 903.436 253.006 901.631 242.65L896.577 214.853C895.314 208.676 893.328 203.952 888.454 203.952C883.22 203.952 881.415 207.768 881.415 216.67V241.197Z" fill="white"/>
<path d="M986.957 180.152C1011.87 180.152 1031 196.685 1031 223.756C1031 251.735 1010.06 268.086 986.957 268.086C962.048 268.086 942.914 251.735 942.914 224.664C942.914 196.685 963.853 180.152 986.957 180.152ZM993.455 255.187C998.329 254.641 999.953 246.284 998.329 233.203C996.343 215.943 988.221 192.325 980.459 193.233C975.405 193.96 973.78 202.681 975.224 215.035C977.391 232.476 985.513 256.277 993.455 255.187Z" fill="white"/>
</svg>
