<svg width="1180" height="414" viewBox="0 0 1180 414" fill="none" xmlns="http://www.w3.org/2000/svg">
<path d="M113 295.984L194.212 112H198.313L279.525 295.984H249.72L229.212 247.139H148L127.766 295.984H113ZM152.102 236.827H224.837L188.743 148.905L152.102 236.827Z" fill="white"/>
<path d="M333.64 210.233V295.984H306.843V116.342H365.906C384.318 116.342 399.357 120.412 411.024 128.553C422.873 136.694 428.798 147.458 428.798 160.845C428.798 174.052 424.058 184.544 414.579 192.323C405.282 199.922 392.612 205.168 376.57 208.062L449.852 295.984L418.133 299.783L354.695 210.233H333.64ZM333.64 202.092H351.141C383.953 202.092 400.36 189.248 400.36 163.559C400.36 159.217 399.266 154.333 397.078 148.905C392.886 137.508 383.953 130 370.281 126.382C357.885 126.382 345.672 127.92 333.64 130.995V202.092Z" fill="white"/>
<path d="M775.876 253.38L836.306 116.342H864.197L874.315 295.984H846.424L839.041 141.579H837.947L769.04 295.984H765.212L697.672 147.82H696.579L689.196 295.984H677.164L687.282 116.342H712.712L775.876 253.38Z" fill="white"/>
<path d="M900.475 295.984L981.687 112H985.788L1067 295.984H1037.2L1016.69 247.139H935.475L915.241 295.984H900.475ZM939.577 236.827H1012.31L976.218 148.905L939.577 236.827Z" fill="white"/>
<path d="M563.52 114.845C587.218 114.845 606.815 122.624 622.31 138.182C637.805 153.56 645.552 174.997 645.552 202.495C645.552 220.224 642.453 235.782 636.255 249.17C630.057 262.376 621.945 272.597 611.919 279.834C592.414 293.945 570.903 301 547.387 301C523.871 301 504.366 293.221 488.871 277.663C473.558 261.924 465.902 240.305 465.902 212.807C465.902 198.515 467.907 185.671 471.918 174.274C476.11 162.695 481.488 153.288 488.051 146.052C494.796 138.815 502.543 132.755 511.293 127.871C527.335 119.187 544.744 114.845 563.52 114.845ZM508.559 266.808C513.298 274.768 519.679 281.01 527.699 285.532C535.72 289.874 544.926 292.045 555.317 292.045C565.89 292.045 575.278 289.422 583.481 284.176C591.684 278.929 598.065 272.055 602.622 263.552C611.919 246.547 616.567 228.275 616.567 208.737C616.567 184.676 611.737 165.319 602.075 150.665C591.32 134.202 574.222 125.58 549.423 127.871C530.912 129.58 517.673 142.705 508.559 157.72C499.444 172.736 494.887 189.741 494.887 208.737C494.887 231.893 499.444 251.25 508.559 266.808Z" fill="white"/>
<path d="M563.52 114.845C587.218 114.845 606.815 122.624 622.31 138.182C637.805 153.56 645.552 174.997 645.552 202.495C645.552 220.224 642.453 235.782 636.255 249.17C630.057 262.376 621.945 272.597 611.919 279.834C592.414 293.945 570.903 301 547.387 301C523.871 301 504.366 293.221 488.871 277.663C473.558 261.924 465.902 240.305 465.902 212.807C465.902 198.515 467.907 185.671 471.918 174.274C476.11 162.695 481.488 153.288 488.051 146.052C494.796 138.815 502.543 132.755 511.293 127.871C527.335 119.187 544.744 114.845 563.52 114.845ZM508.559 266.808C513.298 274.768 519.679 281.01 527.699 285.532C535.72 289.874 544.926 292.045 555.317 292.045C565.89 292.045 575.278 289.422 583.481 284.176C591.684 278.929 598.065 272.055 602.622 263.552C611.919 246.547 616.567 228.275 616.567 208.737C616.567 184.676 611.737 165.319 602.075 150.665C591.32 134.202 574.222 125.58 549.423 127.871C530.912 129.58 517.673 142.705 508.559 157.72C499.444 172.736 494.887 189.741 494.887 208.737C494.887 231.893 499.444 251.25 508.559 266.808Z" fill="white"/>
<path d="M563.52 114.845C587.218 114.845 606.815 122.624 622.31 138.182C637.805 153.56 645.552 174.997 645.552 202.495C645.552 220.224 642.453 235.782 636.255 249.17C630.057 262.376 621.945 272.597 611.919 279.834C592.414 293.945 570.903 301 547.387 301C523.871 301 504.366 293.221 488.871 277.663C473.558 261.924 465.902 240.305 465.902 212.807C465.902 198.515 467.907 185.671 471.918 174.274C476.11 162.695 481.488 153.288 488.051 146.052C494.796 138.815 502.543 132.755 511.293 127.871C527.335 119.187 544.744 114.845 563.52 114.845ZM508.559 266.808C513.298 274.768 519.679 281.01 527.699 285.532C535.72 289.874 544.926 292.045 555.317 292.045C565.89 292.045 575.278 289.422 583.481 284.176C591.684 278.929 598.065 272.055 602.622 263.552C611.919 246.547 616.567 228.275 616.567 208.737C616.567 184.676 611.737 165.319 602.075 150.665C591.32 134.202 574.222 125.58 549.423 127.871C530.912 129.58 517.673 142.705 508.559 157.72C499.444 172.736 494.887 189.741 494.887 208.737C494.887 231.893 499.444 251.25 508.559 266.808Z" fill="white"/>
<path d="M563.52 114.845C587.218 114.845 606.815 122.624 622.31 138.182C637.805 153.56 645.552 174.997 645.552 202.495C645.552 220.224 642.453 235.782 636.255 249.17C630.057 262.376 621.945 272.597 611.919 279.834C592.414 293.945 570.903 301 547.387 301C523.871 301 504.366 293.221 488.871 277.663C473.558 261.924 465.902 240.305 465.902 212.807C465.902 198.515 467.907 185.671 471.918 174.274C476.11 162.695 481.488 153.288 488.051 146.052C494.796 138.815 502.543 132.755 511.293 127.871C527.335 119.187 544.744 114.845 563.52 114.845ZM508.559 266.808C513.298 274.768 519.679 281.01 527.699 285.532C535.72 289.874 544.926 292.045 555.317 292.045C565.89 292.045 575.278 289.422 583.481 284.176C591.684 278.929 598.065 272.055 602.622 263.552C611.919 246.547 616.567 228.275 616.567 208.737C616.567 184.676 611.737 165.319 602.075 150.665C591.32 134.202 574.222 125.58 549.423 127.871C530.912 129.58 517.673 142.705 508.559 157.72C499.444 172.736 494.887 189.741 494.887 208.737C494.887 231.893 499.444 251.25 508.559 266.808Z" fill="white"/>
</svg>
