<svg width="1180" height="414" viewBox="0 0 1180 414" fill="none" xmlns="http://www.w3.org/2000/svg">
<path fill-rule="evenodd" clip-rule="evenodd" d="M716.093 162.247C714.401 168.229 713.085 173.332 713.085 173.332C713.085 173.508 729.442 185.473 731.886 187.233C740.535 192.863 745.987 195.855 750.876 197.438C753.132 198.142 757.456 199.022 758.584 199.022C758.96 199.022 759.336 199.022 759.336 199.198C759.336 199.198 758.396 212.923 757.268 229.639C756.14 246.355 755.2 260.255 755.2 260.607V261.311H770.993V260.959C770.993 260.783 770.053 246.883 768.737 230.167C767.421 213.45 766.481 199.726 766.669 199.55C766.669 199.374 767.609 199.198 768.737 199.198C775.882 198.318 782.838 195.151 795.059 187.057C797.691 185.297 812.92 174.036 813.108 173.684C813.296 173.508 807.28 151.865 807.092 151.689C807.092 151.689 804.836 155.208 802.392 159.607C796.939 169.109 795.623 171.044 791.675 176.147C786.786 182.13 783.966 184.769 776.446 189.344C770.053 193.391 769.301 193.567 762.533 193.567C758.208 193.567 758.02 193.391 756.516 193.039C752.756 191.632 743.731 185.825 740.159 182.306C737.903 180.194 732.45 173.508 730.006 169.813C729.066 168.405 726.434 163.83 723.99 159.783C721.546 155.56 719.665 152.041 719.477 152.041C719.101 151.161 718.349 154.152 716.093 162.247Z" fill="white"/>
<path fill-rule="evenodd" clip-rule="evenodd" d="M189.842 206.236C171.981 235.797 156.94 260.255 156.564 260.783L156 261.839H179.314L200.935 213.802C212.78 187.409 222.557 164.358 222.557 164.358C222.557 164.358 232.334 187.233 244.367 213.626L265.988 261.663H288.926L285.354 255.68C280.465 247.762 222.557 151.513 222.557 151.513C222.557 151.513 207.892 176.851 189.842 206.236Z" fill="white"/>
<path fill-rule="evenodd" clip-rule="evenodd" d="M1021.62 248.642L1025 261.311C1016.73 261.311 1008.64 261.135 999.618 260.607C974.8 259.2 961.075 255.329 953.179 247.762C949.794 244.419 947.35 240.02 946.598 235.269C946.222 232.982 946.222 228.231 946.598 225.592C949.606 210.459 955.999 199.374 973.672 168.757C980.629 157.672 984.577 151.161 984.765 151.161C984.953 151.161 997.174 170.165 997.55 170.868L996.422 172.452C993.602 176.147 986.081 184.593 980.441 191.28C969.912 204.125 968.408 206.412 965.776 209.931C958.067 219.785 955.623 226.471 954.871 231.398C954.495 233.686 954.871 235.621 956.187 238.085C960.135 245.651 972.732 253.217 995.858 251.282C1009.39 250.226 1006.01 250.578 1021.62 248.642Z" fill="white"/>
<path fill-rule="evenodd" clip-rule="evenodd" d="M501.005 252.337V261.311C492.733 261.311 484.648 261.135 475.624 260.607C450.806 259.2 437.081 255.329 429.184 247.762C425.8 244.419 423.356 240.02 422.604 235.269C422.228 232.982 422.228 228.231 422.604 225.592C425.612 210.459 431.252 201.837 449.678 168.757C449.678 168.757 460.582 151.161 460.77 151.161C460.958 151.161 473.179 170.165 473.555 170.868L472.427 172.452C469.607 176.147 462.087 184.593 456.446 191.28L441.781 209.931C434.072 219.785 431.628 226.471 430.876 231.398C430.5 233.686 430.876 235.797 432.192 238.085C436.141 245.651 448.738 249.522 471.863 251.282C480.888 251.985 491.041 252.337 501.005 252.337Z" fill="white"/>
<path fill-rule="evenodd" clip-rule="evenodd" d="M501.005 252.337V261.311C509.278 261.311 517.363 261.135 526.387 260.607C551.205 259.2 564.93 255.329 572.827 247.762C576.211 244.419 578.655 240.02 579.407 235.269C579.783 232.982 579.783 228.231 579.407 225.592C576.399 210.459 570.759 201.837 552.333 168.757C552.333 168.757 541.428 151.161 541.24 151.161C541.052 151.161 528.831 170.165 528.455 170.868L529.583 172.452C532.404 176.147 539.924 184.593 545.565 191.28L560.23 209.931C567.938 219.785 570.383 226.471 571.135 231.398C571.511 233.686 571.135 235.797 569.818 238.085C565.87 245.651 553.273 249.522 530.148 251.282C521.123 251.985 510.97 252.337 501.005 252.337Z" fill="white"/>
</svg>
