<svg width="1606" height="384" viewBox="0 0 1606 384" fill="none" xmlns="http://www.w3.org/2000/svg">
<path d="M86.8425 251.883C61.981 251.883 33.2127 251.883 0.537598 251.883L72.9911 0.00976562H96.9647L47.952 171.305C51.5037 167.392 55.7657 163.123 60.738 158.498C66.0654 153.517 71.748 148.359 77.7858 143.023C83.4685 138.754 89.1511 134.484 94.8337 130.215C100.872 125.591 106.909 121.499 112.947 117.942C120.05 113.317 127.154 109.76 134.257 107.269C141.715 104.423 148.464 103 154.501 103C155.922 103 157.343 103.178 158.763 103.534C160.539 103.534 162.315 103.89 164.091 104.601C167.287 105.668 170.306 107.981 173.147 111.538C175.989 115.096 177.409 120.432 177.409 127.547C177.409 130.038 177.054 133.061 176.344 136.619C175.989 139.821 175.278 143.378 174.213 147.292C173.503 150.138 172.615 152.984 171.549 155.83C170.839 158.676 170.129 161.522 169.418 164.368C169.063 166.502 168.53 168.637 167.82 170.771C167.465 172.55 167.11 174.329 166.754 176.108C164.268 185.713 161.249 195.14 157.698 204.39C154.146 213.284 148.996 221.11 142.248 227.87C126.799 248.893 117.648 251.883 86.8425 251.883ZM149.707 147.292C149.707 146.936 149.884 146.402 150.239 145.691C150.595 144.979 150.772 144.09 150.772 143.023C151.127 142.311 151.305 141.6 151.305 140.888C151.66 139.821 152.015 138.753 152.37 137.686C152.37 136.975 152.37 136.441 152.37 136.085C152.37 135.374 152.37 134.662 152.37 133.951C152.37 132.172 152.015 130.571 151.305 129.148C150.595 127.725 149.351 127.014 147.576 127.014C141.893 127.014 134.079 129.86 124.135 135.552C114.545 141.244 104.423 148.537 93.7682 157.431C87.3753 162.411 81.1599 167.747 75.1221 173.439C69.0843 179.131 63.4017 184.824 58.0742 190.516C52.3916 197.275 47.2417 203.856 42.6246 210.26C38.3626 216.663 35.3437 222.533 33.5679 227.87H100.694C112.059 227.87 120.761 223.245 126.799 213.995C132.836 204.39 137.631 193.895 141.183 182.511C142.959 176.463 144.379 170.593 145.445 164.901C146.51 159.209 147.753 154.229 149.174 149.96C149.174 149.604 149.174 149.248 149.174 148.892C149.529 148.181 149.707 147.647 149.707 147.292Z" fill="#FEFAEF"/>
<path d="M249.711 228.403L242.786 252.417H211.886C203.362 252.417 196.614 249.926 191.642 244.946C186.67 239.609 184.183 233.028 184.183 225.202C184.183 224.134 184.183 223.067 184.183 222C184.539 220.932 184.716 219.865 184.716 218.798C185.071 218.442 185.249 217.909 185.249 217.197C185.604 216.486 185.782 215.952 185.782 215.596L218.279 100.866H242.786L209.755 215.596C209.755 215.952 209.578 216.308 209.223 216.663C209.223 217.019 209.223 217.197 209.223 217.197C209.223 217.553 209.223 217.909 209.223 218.264C209.223 218.62 209.223 218.976 209.223 219.332C209.223 221.822 210.11 223.956 211.886 225.735C213.662 227.514 215.971 228.403 218.812 228.403H249.711ZM260.899 63.5117C260.899 69.9153 258.59 75.4294 253.973 80.0542C249.356 84.679 243.673 86.9914 236.925 86.9914C230.177 86.9914 224.495 84.679 219.878 80.0542C215.26 75.4294 212.952 69.9153 212.952 63.5117C212.952 56.7524 215.26 51.0604 219.878 46.4356C224.495 41.8108 230.177 39.4984 236.925 39.4984C243.673 39.4984 249.356 41.8108 253.973 46.4356C258.59 51.0604 260.899 56.7524 260.899 63.5117Z" fill="#FEFAEF"/>
<path d="M308.818 252.417L315.744 228.403C316.81 228.403 317.875 228.403 318.941 228.403C320.006 228.403 321.072 228.403 322.137 228.403C322.847 228.403 323.735 228.403 324.801 228.403C325.866 228.403 326.754 228.403 327.465 228.403C337.054 228.403 346.111 227.158 354.635 224.668C363.159 221.822 369.196 214.529 372.748 202.789C372.748 202.078 372.748 201.544 372.748 201.188C373.103 200.832 373.281 200.299 373.281 199.587C373.281 199.232 373.281 198.876 373.281 198.52C373.281 197.809 373.281 197.275 373.281 196.919C373.281 193.006 372.393 188.915 370.617 184.646C368.841 180.377 366.71 176.108 364.224 171.839C363.159 170.06 361.915 168.281 360.495 166.502C359.429 164.723 358.364 162.767 357.298 160.632C354.457 156.719 351.793 152.806 349.307 148.892C346.821 144.979 344.868 141.244 343.447 137.686C342.026 139.821 340.428 141.955 338.652 144.09C337.232 146.224 335.811 148.181 334.39 149.96C334.39 150.315 334.213 150.671 333.857 151.027C333.857 151.027 333.68 151.205 333.325 151.561C320.539 169.348 308.818 185.891 298.163 201.188C287.509 216.13 282.181 223.601 282.181 223.601C274.012 235.696 266.021 243.523 258.207 247.08C250.394 250.638 243.823 252.417 238.496 252.417L245.422 228.403C247.908 228.403 250.216 227.514 252.347 225.735C254.478 223.956 256.432 222 258.207 219.865C258.918 218.798 259.628 217.731 260.338 216.663C261.404 215.596 262.114 214.707 262.469 213.995L364.757 70.4489L384.468 79.5206L366.355 105.135C366 106.558 365.645 107.981 365.29 109.404C364.934 110.471 364.757 111.716 364.757 113.139C364.757 116.697 365.645 120.254 367.421 123.812C369.196 127.369 370.972 130.749 372.748 133.951C373.458 135.018 373.991 136.085 374.346 137.153C375.057 137.864 375.767 138.753 376.477 139.821C377.543 141.6 378.431 143.378 379.141 145.157C380.206 146.58 381.272 148.181 382.337 149.96C383.403 151.383 384.291 152.806 385.001 154.229C385.711 155.296 386.599 156.541 387.665 157.964C390.506 162.945 392.992 168.103 395.123 173.439C397.609 178.776 398.853 184.468 398.853 190.516C398.853 192.294 398.675 194.251 398.32 196.386C397.965 198.52 397.432 200.655 396.722 202.789C395.301 207.414 393.347 211.861 390.861 216.13C388.375 220.399 385.534 224.49 382.337 228.403C360.495 255.144 332.034 252.417 308.818 252.417Z" fill="#FEFAEF"/>
<path d="M539.159 228.403L532.234 252.417H466.363C451.091 252.417 440.613 248.681 434.931 241.21C429.248 233.384 426.407 223.956 426.407 212.928C426.407 209.015 426.762 204.924 427.472 200.655C428.182 196.386 428.893 192.116 429.603 187.847C430.669 183.223 431.734 178.776 432.8 174.507C434.22 169.882 435.641 165.435 437.062 161.166C438.837 155.83 440.436 150.671 441.856 145.691C443.632 140.71 445.053 136.441 446.118 132.884H402.433L409.359 108.337H453.044L474.886 32.0276H499.393L477.55 108.337H521.768L514.843 132.884H470.625L451.978 197.986C451.623 199.409 451.268 200.832 450.913 202.255C450.913 203.678 450.913 205.101 450.913 206.524C450.913 212.572 452.866 217.731 456.773 222C461.035 226.269 466.54 228.403 473.288 228.403H539.159Z" fill="#FEFAEF"/>
<path d="M663.451 228.403L656.525 252.417H625.738C610.465 252.417 599.988 248.503 594.305 240.677C588.623 232.85 585.781 223.423 585.781 212.394C585.781 208.481 585.959 204.39 586.314 200.121C587.025 195.852 587.913 191.583 588.978 187.314C590.043 182.689 591.109 178.064 592.174 173.439C593.595 168.815 595.016 164.546 596.436 160.632C598.212 154.94 599.81 149.782 601.231 145.157C603.007 140.177 604.428 136.085 605.493 132.884H542.096C549.022 108.337 542.096 132.884 549.022 108.337H656.525L649.6 132.884H629.467L610.821 197.986C610.465 199.409 610.11 200.832 609.755 202.255C609.755 203.323 609.755 204.568 609.755 205.991C609.755 212.039 611.886 217.375 616.148 222C620.41 226.269 625.915 228.403 632.663 228.403H663.451Z" fill="#FEFAEF"/>
<path d="M734.882 252.417C715.348 252.417 701.319 246.725 692.795 235.34C684.271 223.956 680.186 210.616 680.541 195.318C680.541 190.338 680.897 185.357 681.607 180.377C682.317 175.396 683.383 170.416 684.803 165.435C687.29 156.897 690.131 148.715 693.327 140.888C696.524 132.706 701.851 125.769 709.31 120.076C714.282 116.163 719.787 113.317 725.825 111.538C732.218 109.404 739.321 108.337 747.135 108.337H890.443L883.518 132.884H740.209C739.144 132.884 738.078 132.884 737.013 132.884C735.947 132.884 735.059 133.061 734.349 133.417C732.218 133.773 730.087 134.307 727.956 135.018C726.18 135.374 724.404 136.263 722.628 137.686C719.787 140.177 717.301 143.912 715.17 148.892C713.039 153.517 711.086 158.854 709.31 164.901C708.599 167.747 707.889 170.949 707.179 174.507C706.468 178.064 705.936 181.8 705.581 185.713C705.581 186.424 705.581 187.314 705.581 188.381C705.581 189.093 705.581 189.982 705.581 191.049C705.581 200.655 707.889 209.37 712.506 217.197C717.123 224.668 725.47 228.403 737.545 228.403C754.593 228.403 767.912 222.355 777.501 210.26C787.446 198.164 795.082 185.001 800.41 170.771C801.12 167.925 801.83 165.257 802.54 162.767C803.606 159.921 804.494 157.253 805.204 154.762H829.71C825.448 168.993 820.476 182.155 814.794 194.251C809.466 206.347 800.587 217.731 788.156 228.403C788.156 228.403 775.701 240.158 766.012 244.883C754.769 250.366 734.882 252.417 734.882 252.417Z" fill="#FEFAEF"/>
<path d="M1090.22 72.5826L1039.08 252.416H1071.58V276.429H1031.62L1001.25 383.689L911.753 277.496L906.959 283.9C890.621 306.668 870.199 326.946 845.693 344.734C821.186 362.166 782.118 370.882 728.488 370.882H694.817V346.335H728.488C765.426 346.335 795.792 340.998 819.588 330.326C843.739 319.297 866.47 299.02 887.78 269.492C890.266 266.29 892.042 264.156 893.107 263.088C894.528 261.665 895.416 260.42 895.771 259.353C895.771 258.642 895.238 257.93 894.173 257.219C893.462 256.151 892.219 254.55 890.443 252.416H900.033L1041.21 57.1074C1044.05 53.1941 1047.07 49.9923 1050.27 47.5021C1053.82 44.656 1057.37 42.5215 1060.92 41.0985C1063.41 40.0312 1065.72 39.3197 1067.85 38.964C1069.98 38.2525 1072.11 37.8967 1074.24 37.8967C1079.21 37.8967 1083.48 39.4976 1087.03 42.6994C1090.58 45.9012 1092.35 51.0596 1092.35 58.1746C1092.35 60.3092 1092.18 62.6216 1091.82 65.1118C1091.47 67.2463 1090.93 69.7366 1090.22 72.5826ZM1006.58 276.429H942.653L990.6 333.528C992.02 328.547 993.263 323.744 994.329 319.12C995.75 314.495 997.17 309.692 998.591 304.712C1000.01 300.087 1001.25 295.462 1002.32 290.837C1003.74 285.857 1005.16 281.054 1006.58 276.429ZM1067.85 63.5109C1066.78 64.2225 1065.72 65.2897 1064.65 66.7127C1063.59 67.78 1062.17 69.203 1060.39 70.9818C1060.39 70.9818 1052.4 82.188 1036.42 104.6C1020.43 126.657 1002.85 150.848 983.674 177.174C973.729 191.048 963.962 204.567 954.373 217.73C945.139 230.893 936.97 242.455 929.867 252.416H1013.51L1067.32 65.6455L1067.85 63.5109Z" fill="#FEFAEF"/>
<path d="M1169.58 346.868L1162.65 370.882H1115.29C1106.76 370.882 1100.02 368.213 1095.04 362.877C1090.07 357.541 1087.58 351.137 1087.58 343.666C1087.58 341.888 1087.76 340.287 1088.12 338.864C1088.47 337.085 1088.83 335.484 1089.18 334.061L1150.45 118.475H1174.96L1113.16 334.061C1113.16 334.417 1112.98 334.773 1112.62 335.128C1112.62 335.484 1112.62 335.662 1112.62 335.662C1112.62 336.018 1112.62 336.374 1112.62 336.729C1112.62 337.085 1112.62 337.441 1112.62 337.797C1112.62 340.287 1113.51 342.421 1115.29 344.2C1117.06 345.979 1119.37 346.868 1122.21 346.868H1169.58Z" fill="#FEFAEF"/>
<path d="M1441.64 346.868L1447.56 370.882H1407.84C1390.43 370.882 1378.54 367.146 1372.14 359.675C1366.11 351.849 1363.09 342.421 1363.09 331.393C1363.09 327.124 1363.44 322.677 1364.15 318.052C1364.86 313.427 1365.75 308.803 1366.82 304.178C1367.88 300.62 1368.77 297.241 1369.48 294.039C1370.55 290.481 1371.61 286.924 1372.68 283.366C1374.1 279.453 1375.34 275.718 1376.41 272.16C1377.47 268.247 1378.54 264.511 1379.6 260.954C1379.96 260.242 1380.13 259.709 1380.13 259.353C1380.13 258.642 1380.13 257.93 1380.13 257.219C1380.13 255.084 1379.42 253.127 1378 251.349C1376.94 249.214 1375.16 247.969 1372.68 247.613C1372.32 247.613 1371.97 247.613 1371.61 247.613C1371.61 247.613 1371.26 247.613 1370.55 247.613C1368.06 247.613 1365.57 248.503 1363.09 250.281C1360.6 252.06 1358.65 254.195 1357.23 256.685C1356.87 256.685 1356.52 256.863 1356.16 257.219C1356.16 257.219 1356.16 257.396 1356.16 257.752L1276.78 370.882H1252.81L1284.24 260.954C1284.24 257.303 1285.39 254.517 1283.17 250.815C1279.66 242.016 1268.35 252.322 1264.53 256.151C1263.82 256.863 1263.29 257.574 1262.93 258.286L1177.16 370.882H1160.11L1201.66 226.802H1225.64L1204.86 299.375L1243.75 248.147C1245.88 245.301 1248.01 242.81 1250.14 240.676C1252.28 238.541 1254.41 236.585 1256.54 234.806C1261.51 230.537 1266.3 227.691 1270.92 226.268C1275.89 224.489 1280.51 223.6 1284.77 223.6C1285.84 223.6 1286.9 223.6 1287.97 223.6C1289.03 223.6 1289.92 223.778 1290.63 224.133C1297.74 225.556 1302.53 228.758 1305.02 233.739C1307.86 238.719 1309.28 244.589 1309.28 251.349C1309.28 254.195 1308.92 257.218 1308.21 260.42C1307.86 263.266 1307.33 266.112 1306.62 268.958C1305.91 272.16 1305.02 275.362 1303.95 278.564C1303.24 281.41 1302.53 284.256 1301.82 287.102C1300.4 291.371 1298.98 295.284 1297.56 298.842C1296.49 302.399 1295.61 305.423 1294.9 307.913L1336.45 248.68C1339.29 244.767 1342.13 241.387 1344.97 238.541C1348.17 235.695 1351.19 233.205 1354.03 231.071C1358.29 228.58 1362.38 226.802 1366.28 225.734C1370.55 224.311 1374.45 223.6 1378 223.6C1379.07 223.6 1380.13 223.6 1381.2 223.6C1382.27 223.6 1383.33 223.778 1384.4 224.133C1392.21 225.556 1397.54 228.936 1400.38 234.272C1403.22 239.253 1404.64 245.123 1404.64 251.882C1404.64 254.728 1404.46 257.574 1404.11 260.42C1403.75 263.266 1403.22 266.112 1402.51 268.958C1401.8 272.16 1400.91 275.362 1399.85 278.564C1399.14 281.41 1398.25 284.256 1397.18 287.102C1396.12 291.015 1394.87 294.75 1393.45 298.308C1392.39 301.866 1391.5 304.889 1390.79 307.38C1389.72 311.293 1388.84 315.028 1388.13 318.586C1387.42 321.788 1387.06 324.812 1387.06 327.658C1387.06 333.705 1389.19 338.508 1393.45 342.066C1397.72 345.267 1404.82 346.868 1414.76 346.868H1441.64Z" fill="#FEFAEF"/>
<path d="M1605.06 346.868L1598.14 370.882H1562.64C1551.63 370.882 1544.17 368.391 1540.26 363.411C1536.36 358.074 1534.4 351.493 1534.4 343.666C1534.4 340.82 1534.58 337.974 1534.93 335.128C1535.29 332.282 1535.82 329.258 1536.53 326.057C1537.24 323.566 1537.95 321.076 1538.66 318.586C1539.37 315.74 1540.26 313.072 1541.33 310.581C1542.39 307.024 1543.28 303.822 1543.99 300.976C1545.06 297.774 1545.94 295.106 1546.66 292.972C1544.52 295.106 1542.39 297.241 1540.26 299.375C1538.13 301.51 1535.82 303.822 1533.34 306.312C1522.68 316.985 1512.74 326.946 1503.5 336.196C1494.62 345.09 1490.18 349.536 1490.18 349.536C1481.3 358.43 1473.14 364.3 1465.68 367.146C1458.57 369.636 1452.54 370.882 1447.56 370.882C1445.08 370.882 1442.95 370.704 1441.17 370.348C1439.75 369.992 1438.51 369.636 1437.44 369.281C1431.76 367.502 1427.14 364.122 1423.59 359.142C1420.39 353.805 1418.8 348.113 1418.8 342.066C1418.8 324.712 1426.13 304.93 1431.05 288.169C1435.31 272.872 1441.53 258.819 1449.7 246.012C1457.86 233.205 1470.29 226.802 1486.99 226.802H1589.81L1559.44 332.46C1559.44 336.6 1558.04 339.423 1561.57 343.666C1563.7 345.801 1566.37 346.868 1569.56 346.868H1605.06ZM1558.91 250.815L1480.06 251.349C1476.51 251.349 1473.31 252.06 1470.47 253.483C1467.63 254.906 1465.68 257.574 1464.61 261.488L1444.37 331.927C1444.01 332.282 1443.84 332.816 1443.84 333.528C1443.84 333.883 1443.84 334.417 1443.84 335.128C1443.84 337.619 1444.55 339.931 1445.97 342.066C1447.39 344.2 1449.16 345.623 1451.29 346.335C1452 346.69 1452.54 346.868 1452.89 346.868C1453.6 346.868 1454.31 346.868 1455.02 346.868C1456.09 346.868 1457.15 346.69 1458.22 346.335C1459.28 345.979 1460.35 345.623 1461.42 345.267C1463.19 344.2 1464.97 342.955 1466.74 341.532C1468.52 340.109 1470.12 338.686 1471.54 337.263C1472.25 336.907 1472.78 336.551 1473.14 336.196C1473.49 335.84 1473.85 335.484 1474.2 335.128L1558.91 250.815Z" fill="#FEFAEF"/>
</svg>
