<svg width="1180" height="414" viewBox="0 0 1180 414" fill="none" xmlns="http://www.w3.org/2000/svg">
<g clip-path="url(#clip0_10708_9)">
<path d="M196.93 201.783C209.65 196.091 220.5 184.762 220.5 168.856C220.5 145.275 202.062 131.748 169.916 131.748H119V280.99H167.927C206.832 280.99 230.061 265.336 230.061 239.118C230.061 221.096 216.574 206.402 196.93 201.778V201.783ZM171.713 200.225H140.82V137.807H168.129C184.51 137.807 195.423 143.448 195.423 170.987C195.423 189.035 191.456 200.225 171.713 200.225ZM140.814 208.142H175.69C195.941 208.142 204.585 218.459 204.585 242.638C204.585 263.272 198.396 274.456 165.731 274.456C159.19 274.456 146.511 274.11 140.814 273.418V208.142Z" fill="white"/>
<path d="M472.67 129.369L439.42 214.84C437.975 218.567 436.52 222.324 435.06 226.097C428.347 243.453 421.408 261.403 414.545 277.697L413.162 280.984H422.635L423.231 279.493C432.827 255.499 435.469 249.28 436.738 246.292C438.001 243.309 438.063 243.175 441.886 232.951H500.948L519.474 280.984H548.14L489.135 129.369H472.67ZM444.196 226.499L447.64 217.741L471.318 156.758L498.441 226.499H444.201H444.196Z" fill="white"/>
<path d="M690.586 238.803L617.587 131.748H592.453V135.448L598.828 144.78V280.675H605.696V155.257L693.16 283.369H697.992V130.68H690.586V238.803Z" fill="white"/>
<path d="M881.628 252.557C880.649 253.744 879.561 254.936 878.396 256.103C855.836 278.584 821.322 274.409 792.526 245.709C778.683 231.913 769.567 215.625 766.848 199.853C763.989 183.245 768.361 168.613 779.485 157.538C790.657 146.395 804.998 141.848 820.965 144.392C836.181 146.818 852.148 155.716 865.924 169.439C866.707 170.218 867.494 171.023 868.25 171.849L869.881 173.624L886.864 157.584L885.325 155.865C884.517 154.967 883.658 154.064 882.767 153.176C868.39 138.849 849.284 130.963 828.966 130.963H828.951C808.623 130.963 789.507 138.865 775.135 153.202C760.758 167.519 752.839 186.563 752.839 206.82C752.839 227.082 760.758 246.127 775.135 260.443C789.507 274.76 808.613 282.646 828.946 282.651H828.956C849.284 282.651 868.39 274.765 882.751 260.443C884.098 259.101 885.284 257.832 886.377 256.567L887.91 254.787L883.186 250.663L881.628 252.552V252.557Z" fill="white"/>
<path d="M1002.99 129.369H986.53L953.28 214.84C951.835 218.567 950.38 222.324 948.92 226.097C942.208 243.453 935.268 261.403 928.405 277.697L927.022 280.984H936.495L937.091 279.493C946.687 255.499 949.329 249.28 950.598 246.292C951.861 243.309 951.924 243.175 955.746 232.951H1014.81L1033.33 280.984H1062L1002.99 129.369ZM958.056 226.499L961.5 217.741L985.179 156.758L1012.3 226.499H958.061H958.056Z" fill="white"/>
<path d="M371.341 260.175L371.331 260.227C370.269 260.402 369.176 260.609 368.073 260.82L367.006 261.032C358.28 262.792 348.377 265.594 338.739 268.33C326.174 271.896 314.304 275.261 308.327 275.261H305.919V131.748H285.016V280.984H371.87L374.552 259.54L371.347 260.175H371.341Z" fill="white"/>
</g>
<defs>
<clipPath id="clip0_10708_9">
<rect width="943" height="154" fill="white" transform="translate(119 129.369)"/>
</clipPath>
</defs>
</svg>
