<svg width="1180" height="414" viewBox="0 0 1180 414" fill="none" xmlns="http://www.w3.org/2000/svg">
<path d="M293.893 280.887C287.239 278.242 281.25 273.615 275.927 268.326C270.603 263.038 266.611 256.427 263.949 249.156C261.288 241.884 259.957 233.29 259.957 224.035C259.957 214.78 261.288 206.186 263.949 198.915C266.611 191.643 270.603 185.032 275.927 179.744C281.25 174.455 287.239 170.489 293.893 167.845C300.547 164.539 307.867 163.217 315.852 163.217C323.837 163.217 330.491 164.539 337.81 167.845C344.464 170.489 350.453 175.116 355.776 180.405C360.434 185.032 364.427 191.643 367.089 198.915C369.75 206.186 371.081 214.78 371.081 224.035C371.081 233.29 369.75 241.884 367.089 249.156C364.427 256.427 360.434 263.038 355.111 268.326C349.788 273.615 344.464 277.581 337.145 280.887C330.491 283.531 323.171 285.514 315.186 285.514C307.867 285.514 300.547 283.531 293.893 280.887ZM328.494 261.055C332.487 259.072 335.814 256.427 338.476 253.122C341.137 249.817 343.134 245.85 344.464 241.223C345.795 236.595 346.461 231.307 346.461 225.357C346.461 219.408 345.795 214.119 344.464 209.492C343.134 204.864 341.137 200.898 338.476 197.593C335.814 194.287 332.487 191.643 328.494 189.66C324.502 187.677 320.51 187.016 315.852 187.016C311.194 187.016 307.201 187.677 303.209 189.66C299.216 191.643 295.889 194.287 293.228 197.593C290.566 200.898 288.57 204.864 286.573 209.492C285.243 214.119 284.577 219.408 284.577 225.357C284.577 231.307 285.243 236.595 286.573 241.223C287.904 245.85 289.9 249.817 293.228 253.122C295.889 256.427 299.216 259.072 303.209 261.055C307.201 263.038 311.194 263.699 315.852 263.699C320.51 263.699 324.502 263.038 328.494 261.055Z" fill="white"/>
<path d="M560.057 280.887C553.403 278.242 547.414 273.615 542.091 268.326C536.768 263.038 532.775 256.427 530.114 249.156C527.452 241.884 526.121 233.29 526.121 224.035C526.121 214.78 527.452 206.186 530.114 198.915C532.775 191.643 536.768 185.032 542.091 179.744C547.414 174.455 553.403 170.489 560.057 167.845C566.711 164.539 574.031 163.217 581.351 163.217C589.336 163.217 596.655 164.539 603.309 167.845C609.963 170.489 615.952 175.116 621.275 180.405C626.599 185.693 630.591 192.304 633.253 199.576C635.915 206.847 637.245 215.441 637.245 224.696C637.245 233.951 635.915 242.545 633.253 249.817C630.591 257.088 626.599 263.699 621.275 268.988C615.952 274.276 610.629 278.242 603.309 281.548C596.655 284.192 589.336 286.175 581.351 286.175C574.031 285.514 566.711 283.531 560.057 280.887ZM593.993 261.055C597.986 259.072 600.648 256.427 603.975 253.122C606.636 249.817 608.633 245.85 610.629 241.223C611.96 236.595 612.625 231.307 612.625 225.357C612.625 219.408 611.96 214.119 610.629 209.492C609.298 204.864 607.302 200.898 603.975 197.593C601.313 194.287 597.986 191.643 593.993 189.66C590.001 187.677 586.008 187.016 581.351 187.016C576.693 187.016 572.7 187.677 568.708 189.66C564.715 191.643 561.388 194.287 558.727 197.593C556.065 200.898 554.069 204.864 552.072 209.492C550.742 214.119 550.076 219.408 550.076 225.357C550.076 231.307 550.742 236.595 552.072 241.223C553.403 245.85 555.399 249.817 558.727 253.122C561.388 256.427 564.715 259.072 568.708 261.055C572.7 263.038 576.693 263.699 581.351 263.699C586.008 263.699 590.001 263.038 593.993 261.055Z" fill="white"/>
<path d="M667.187 165.2H691.807V212.136H740.382V165.2H765.003V282.87H740.382V234.612H691.807V282.87H667.187V165.2Z" fill="white"/>
<path d="M828.885 280.887C822.231 278.242 816.242 273.615 810.919 268.326C806.261 263.038 802.269 257.088 799.607 249.156C796.945 241.884 795.615 233.29 795.615 224.035C795.615 214.78 796.945 206.186 799.607 198.915C802.269 191.643 806.261 185.032 811.585 179.744C816.908 174.455 822.231 170.489 829.551 167.184C836.205 164.539 843.524 162.556 851.509 162.556C859.494 162.556 866.814 163.878 873.468 167.184C880.122 169.828 886.111 174.455 891.434 179.744C896.758 185.032 900.75 191.643 903.412 198.915C906.073 206.186 907.404 214.78 907.404 224.035C907.404 233.29 906.073 241.884 903.412 249.156C900.75 256.427 896.758 263.038 891.434 268.326C886.111 273.615 880.788 277.581 873.468 280.887C866.814 283.531 859.494 285.514 851.509 285.514C842.859 285.514 836.205 283.531 828.885 280.887ZM863.487 261.055C867.479 259.072 870.806 256.427 873.468 253.122C876.13 249.817 878.126 245.85 879.457 241.223C880.788 236.595 881.453 231.307 881.453 225.357C881.453 219.408 880.788 214.119 879.457 209.492C878.126 204.864 876.13 200.898 873.468 197.593C870.806 194.287 867.479 191.643 863.487 189.66C859.494 187.677 855.502 187.016 850.844 187.016C846.186 187.016 842.194 187.677 838.201 189.66C834.209 191.643 830.882 194.287 828.22 197.593C825.558 200.898 823.562 204.864 821.566 209.492C820.235 214.119 819.569 219.408 819.569 225.357C819.569 231.307 820.235 236.595 821.566 241.223C822.897 245.85 824.893 249.817 828.22 253.122C830.882 256.427 834.209 259.072 838.201 261.055C842.194 263.038 846.186 263.699 850.844 263.699C855.502 263.699 859.494 263.038 863.487 261.055Z" fill="white"/>
<path d="M961.301 241.223V282.87H936.68V165.2H961.301V209.492L1001.23 165.2H1029.17L985.921 214.78L1032.5 282.87H1004.55L969.951 232.629L961.301 241.223Z" fill="white"/>
<path d="M465.568 237.917C460.244 238.579 450.263 239.24 444.275 239.24C424.977 239.24 416.327 234.612 412.335 231.968C401.688 224.035 400.357 210.814 400.357 201.559V165.2H423.647V197.593C423.647 202.881 423.647 209.492 429.635 214.119C432.962 216.102 438.286 217.424 446.936 217.424C452.925 217.424 459.579 216.763 465.568 216.102V165.2H490.188V282.87H465.568V237.917Z" fill="white"/>
<path d="M147.5 165.2H226.684V185.032H172.786V212.136H196.741C205.391 212.136 217.368 213.458 226.684 221.391C233.338 227.34 237.996 236.595 237.996 247.833C237.996 255.766 235.335 263.038 231.342 268.988C222.026 281.548 207.387 283.531 197.406 283.531H147.5V165.2ZM172.786 263.038H192.083C210.714 263.038 214.041 254.444 214.041 247.833C214.041 240.562 210.049 231.968 192.083 231.968H172.786V263.038Z" fill="white"/>
</svg>
