<svg width="1180" height="414" viewBox="0 0 1180 414" fill="none" xmlns="http://www.w3.org/2000/svg">
<path fill-rule="evenodd" clip-rule="evenodd" d="M597.464 148.51C597.464 151.776 596.995 154.109 596.055 156.441C595.116 158.774 593.708 160.64 591.83 161.573C589.952 162.973 588.074 163.906 585.257 164.839C582.909 165.305 580.092 165.772 577.275 165.772C574.458 165.772 571.641 165.305 569.293 164.839C566.946 164.372 564.598 162.973 562.72 161.573C560.842 160.174 559.434 158.307 558.495 156.441C557.556 154.109 557.086 151.776 557.086 148.51H569.293V148.51C569.293 149.444 569.293 150.843 569.763 151.776C569.763 152.709 570.232 153.642 571.171 154.109C571.641 155.042 572.58 155.508 573.519 155.975C574.458 156.441 575.866 156.441 577.745 156.441C579.153 156.441 580.562 156.441 581.97 155.975C582.909 155.508 583.848 155.042 584.318 154.575C584.787 154.109 585.257 153.176 585.726 152.243L585.726 152.243C585.726 151.776 585.844 151.193 585.961 150.61C586.078 150.026 586.196 149.443 586.196 148.977L597.464 148.51ZM548.635 175.103H565.068V214.292H565.537L589.013 175.103H606.385V239.018H589.952V200.296H589.482L566.946 239.018H548.635V175.103ZM162.219 153.175H99.3049V239.951H142.5H146.256C147.665 239.951 150.012 239.484 151.89 239.018C153.703 238.658 155.235 238.019 156.92 237.318L156.92 237.318C157.417 237.11 157.928 236.898 158.463 236.685C160.811 235.285 162.689 233.886 164.567 232.02C166.445 230.154 167.854 227.354 169.262 224.555C170.671 221.756 171.14 218.024 171.14 213.825C171.14 209.16 170.671 205.427 169.262 202.628C167.854 199.362 166.445 197.03 164.567 195.164C162.219 192.831 160.341 191.431 157.994 190.498C155.646 189.565 153.299 188.632 150.951 188.166C148.604 187.699 146.256 187.232 144.378 187.232H139.213H117.616V168.105H162.219V153.175ZM136.866 224.089H117.616H117.146V201.228H135.927C136.866 201.228 137.805 201.345 138.744 201.462C139.683 201.578 140.622 201.695 141.561 201.695C143.439 201.695 145.317 202.162 146.726 203.095C148.134 203.561 149.543 204.961 150.482 206.36C151.421 208.226 151.89 210.093 151.89 212.892C151.89 215.224 151.421 217.557 150.482 218.957C149.543 220.356 148.134 221.289 146.726 222.222C146.315 222.358 145.904 222.534 145.482 222.715C144.456 223.154 143.361 223.622 142.03 223.622C140.152 224.089 138.744 224.089 136.866 224.089ZM199.304 175.102H184.279V265.143H201.182V232.486C202.121 234.352 203.529 235.752 204.938 237.151C205.564 237.773 206.607 238.395 207.65 239.017L207.651 239.018C208.172 239.328 208.694 239.639 209.163 239.95C210.572 240.417 211.98 240.883 213.858 241.35C215.267 241.816 217.145 241.816 218.554 241.816C223.249 241.816 227.474 240.883 230.761 239.017C234.047 237.618 236.864 235.285 239.212 232.019C241.56 228.754 243.438 225.021 244.377 220.822C245.785 216.624 246.255 211.958 246.255 206.826C246.255 202.628 245.785 198.895 244.846 195.63C243.907 192.364 242.968 189.565 241.56 187.232C240.151 184.899 238.743 183.033 236.864 181.167C234.986 179.301 233.108 177.901 231.23 176.968C229.352 176.035 227.005 175.102 225.127 174.636C222.779 173.702 220.901 173.702 219.023 173.702C216.206 173.702 214.328 173.702 212.45 174.169C210.572 174.636 208.694 175.102 207.285 176.035L207.285 176.035C205.877 176.968 204.468 177.901 203.06 179.301C201.651 180.701 200.243 182.567 199.304 184.433V175.102ZM207.285 190.031C209.163 188.632 211.041 188.165 213.858 188.165C216.676 188.165 219.023 188.632 220.432 190.031C221.84 190.964 223.718 192.364 224.657 194.23C225.596 196.096 226.535 197.962 227.005 200.295C227.474 202.161 227.944 204.494 227.944 206.826V210.559C227.709 211.258 227.592 211.958 227.474 212.658C227.357 213.358 227.24 214.058 227.005 214.758C227.005 215.691 226.587 216.624 226.17 217.557C225.961 218.023 225.753 218.49 225.596 218.956L225.596 218.956C224.657 220.356 223.718 221.756 222.779 222.689C221.84 223.622 220.432 224.555 219.023 225.021C217.615 225.488 215.736 225.954 213.858 225.954C211.98 225.954 210.102 225.488 208.694 225.021C207.285 224.555 205.877 223.622 204.938 222.689C203.529 221.756 202.59 220.356 202.121 218.956L200.712 214.758C200.243 213.358 199.773 211.958 199.773 210.559V206.826C199.773 204.96 200.243 202.628 200.712 200.295C201.182 197.962 202.121 196.096 203.06 194.23C203.999 192.83 205.407 190.964 207.285 190.031ZM253.767 207.293C253.767 202.161 254.706 197.962 256.114 193.763C257.523 189.565 259.871 185.832 262.688 183.033C265.505 180.234 268.791 177.901 273.017 176.035C277.242 174.169 281.468 173.702 286.633 173.702C291.797 173.702 296.492 174.636 300.249 176.035C304.474 177.901 307.761 180.234 310.578 183.033C313.395 185.832 315.742 189.565 317.151 193.763C318.56 197.962 319.499 202.628 319.499 207.293C319.499 212.425 318.56 216.624 317.151 220.822C315.742 225.021 313.395 228.754 310.578 231.553C307.761 234.352 304.474 236.685 300.249 238.551C296.023 240.417 291.797 240.883 286.633 240.883C281.468 240.883 276.773 239.95 273.017 238.551C268.791 236.685 265.505 234.352 262.688 231.553C259.871 228.754 257.523 225.021 256.114 220.822C254.706 216.624 253.767 211.958 253.767 207.293ZM271.608 207.293C271.608 209.626 272.078 211.958 272.547 214.291C273.017 216.624 273.956 218.956 275.364 220.822C276.773 222.689 278.182 224.088 280.06 225.488C281.938 226.421 284.285 227.354 287.102 227.354C289.919 227.354 292.736 226.887 294.614 225.488C296.492 224.555 298.37 222.689 299.31 221.289C300.718 219.423 301.188 217.557 301.657 215.224C302.127 212.891 302.596 210.559 302.596 207.759C302.596 205.427 302.127 202.628 301.657 200.295C301.188 197.962 300.249 195.63 299.31 194.23C297.901 192.364 296.492 190.964 294.614 190.031C292.736 189.098 289.919 188.165 287.102 188.165C284.285 188.165 281.938 188.632 280.06 190.031C278.182 190.964 276.303 192.83 275.364 194.697C274.166 196.284 273.647 197.872 272.941 200.034L272.94 200.036L272.94 200.038L272.938 200.044C272.815 200.42 272.686 200.814 272.547 201.228C271.608 202.161 271.608 204.96 271.608 207.293ZM332.651 225.488H326.547V253.947H342.041V238.551H384.297V253.947H399.791V225.022H390.87V174.636H340.632V180.234V187.699C340.632 190.498 340.632 193.297 340.163 196.563L338.754 206.36C338.285 209.626 337.346 212.892 336.407 216.158C335.468 219.423 334.059 222.689 332.651 225.488ZM374.907 188.632V225.488H349.553C349.767 224.957 349.981 224.449 350.19 223.955L350.19 223.954L350.19 223.954C350.896 222.28 351.538 220.758 351.901 218.957C352.84 216.624 353.309 214.291 353.779 211.959C354.013 210.792 354.131 209.626 354.248 208.46C354.366 207.293 354.483 206.127 354.718 204.961C354.718 203.73 354.848 202.499 354.972 201.336L354.972 201.336V201.336L354.972 201.335L354.972 201.335C355.083 200.295 355.187 199.31 355.187 198.429C355.657 196.563 355.657 194.697 355.657 192.831V188.632H374.907ZM409.66 175.103H442.995C445.812 175.103 448.629 175.57 451.447 176.036C453.794 176.503 456.142 177.436 458.489 178.836C460.367 180.235 462.245 181.635 463.654 183.967C465.062 186.3 465.532 189.099 465.532 192.365C465.532 194.231 465.532 196.097 465.062 197.497C464.593 198.897 464.123 200.296 463.184 201.229C462.852 201.56 462.578 201.89 462.322 202.2L462.321 202.2C461.854 202.765 461.443 203.261 460.837 203.562C460.367 203.795 459.898 204.145 459.428 204.495C458.959 204.845 458.489 205.195 458.02 205.428C461.306 206.361 463.654 208.227 465.532 211.026C467.41 213.359 467.879 216.625 467.879 219.891C467.879 222.69 467.41 225.489 466.471 228.288C465.532 230.621 464.123 232.954 462.245 234.353C460.367 236.219 458.02 237.619 455.203 238.552C452.386 239.485 449.569 239.952 445.812 239.952H409.66V175.103ZM426.093 200.296H438.77C440.648 200.296 442.056 200.296 443.465 199.83C444.873 199.363 445.812 198.897 446.282 198.43C447.221 197.963 447.69 197.03 447.69 196.097C448.16 195.164 448.16 194.231 448.16 193.298C448.16 192.365 448.16 191.432 447.69 190.499C447.221 189.566 446.751 189.099 446.282 188.633L443.465 187.233C442.056 186.767 440.648 186.767 439.239 186.767H426.093V200.296ZM426.093 227.355H438.77C441.117 227.355 442.995 226.889 444.404 226.422C445.812 225.956 447.221 225.489 447.69 224.556C448.629 223.623 449.099 222.69 449.099 221.757C449.569 220.824 449.569 219.891 449.569 218.958C449.569 217.558 449.569 216.158 449.099 215.225C448.629 214.292 448.16 213.359 447.221 212.893C446.282 212.426 445.343 211.96 443.934 211.493C442.526 211.026 440.648 211.026 438.77 211.026H426.093V227.355ZM492.756 214.758V212.426V211.959H536.891C536.891 206.361 536.421 200.762 535.482 196.097C534.543 191.432 532.665 187.233 530.317 183.967C527.97 180.701 524.683 177.902 520.927 176.036C516.702 174.17 512.006 173.237 506.372 173.237C501.208 173.237 496.513 174.17 492.756 176.036C489 177.902 485.714 180.235 483.366 183.501C480.549 186.766 478.671 190.032 477.732 194.231C476.324 198.43 475.854 202.628 475.854 206.827C475.854 212.892 476.793 218.491 478.202 222.689C479.61 226.888 481.958 230.62 484.775 233.42C487.592 236.219 490.878 238.085 494.634 239.485C498.391 240.884 502.616 241.351 506.842 241.351C510.128 241.351 512.945 240.884 515.762 240.418C518.58 239.485 520.927 238.552 523.275 237.618C525.622 236.685 527.5 235.286 528.909 233.886C530.317 232.487 531.726 230.62 532.665 229.221C533.604 227.821 534.543 225.955 535.012 224.556C535.159 223.971 535.306 223.479 535.439 223.034L535.44 223.033L535.44 223.031L535.44 223.031C535.73 222.058 535.952 221.317 535.952 220.357H518.58C518.58 221.756 518.11 222.689 517.171 223.622C516.702 224.556 515.763 225.489 514.823 225.955C514.354 226.188 513.767 226.422 513.18 226.655C512.593 226.888 512.006 227.121 511.537 227.355C510.598 227.821 509.659 227.821 508.25 227.821C505.903 227.821 503.555 227.355 502.147 226.888C500.269 226.422 498.86 225.489 497.921 224.556C496.513 223.622 495.574 222.223 495.104 221.29C494.869 220.823 494.634 220.24 494.4 219.657C494.165 219.074 493.93 218.491 493.695 218.024C493.57 217.649 493.444 217.307 493.327 216.99C493.008 216.124 492.756 215.441 492.756 214.758ZM518.11 194.231C519.049 196.097 519.519 198.43 519.519 201.229H493.226C493.226 198.43 493.695 196.097 494.634 194.231C495.573 192.365 496.513 190.499 497.921 189.565C499.33 188.632 500.738 187.699 502.147 187.233C503.555 186.766 504.964 186.766 506.372 186.766C507.781 186.766 509.189 186.766 510.598 187.233C512.006 187.699 513.415 188.632 514.823 189.565C516.232 190.965 517.171 192.365 518.11 194.231ZM734.955 153.175H672.51V239.951H714.766H718.522C719.931 239.951 722.279 239.484 724.157 239.018C725.969 238.658 727.501 238.019 729.186 237.318C729.684 237.111 730.194 236.898 730.73 236.685C733.077 235.285 734.955 233.886 736.833 232.02C738.711 230.154 740.12 227.355 741.528 224.556L741.529 224.555C742.937 221.756 743.407 218.024 743.407 213.825C743.407 209.16 742.937 205.427 741.529 202.628C740.12 199.362 738.711 197.03 736.833 195.164C734.486 192.831 732.608 191.431 730.26 190.498C727.913 189.565 725.565 188.632 723.218 188.166C720.87 187.699 718.522 187.232 716.644 187.232H711.48H689.882V168.105H734.955V153.175ZM709.602 224.089H689.882V201.228H708.663C709.602 201.228 710.541 201.345 711.48 201.462C712.419 201.578 713.358 201.695 714.297 201.695C716.175 201.695 718.053 202.162 719.461 203.095C720.87 203.561 722.279 204.961 723.218 206.36C724.157 208.226 724.626 210.093 724.626 212.892C724.626 215.224 724.157 217.557 723.218 218.957C722.279 220.356 720.87 221.289 719.461 222.223C719.051 222.359 718.64 222.534 718.218 222.715C717.192 223.154 716.097 223.622 714.766 223.622C712.888 224.089 711.48 224.089 709.602 224.089ZM792.243 238.085C791.281 240.635 790.538 242.968 789.864 245.082L789.861 245.091C789.55 246.068 789.253 246.998 788.957 247.882C788.018 250.681 787.079 253.014 786.14 254.88C785.201 256.746 784.262 258.612 782.853 259.545C781.914 260.945 780.506 261.878 779.097 262.344C777.688 263.277 775.81 263.744 773.932 263.744C772.054 264.21 769.707 264.21 766.89 264.21H763.603C762.664 264.21 761.256 264.21 760.317 263.744V250.214C760.786 250.214 761.725 250.214 762.664 250.681H765.012C766.89 250.681 768.298 250.214 769.707 249.748C771.115 249.281 772.054 248.348 772.524 247.415C773.463 246.482 773.932 245.549 773.932 244.616C774.402 243.683 774.402 242.75 774.402 242.283L750.926 175.102H769.707L783.323 222.222H783.792L796.938 175.102H814.78L792.243 238.085ZM839.201 175.102H824.177V265.143H841.079V232.486H841.548C842.487 234.352 843.896 235.752 845.305 237.151C845.93 237.773 846.974 238.395 848.017 239.017C848.539 239.328 849.061 239.639 849.53 239.95C850.939 240.417 852.347 240.883 854.225 241.35C855.634 241.816 857.512 241.816 858.92 241.816C863.615 241.816 867.841 240.883 871.128 239.017C874.414 237.618 877.231 235.285 879.579 232.019C881.926 228.754 883.804 225.021 884.743 220.822C886.152 216.624 886.622 211.958 886.622 206.826C886.622 202.628 886.152 198.895 885.213 195.63C884.274 192.364 883.335 189.565 881.926 187.232C880.518 184.899 879.109 183.033 877.231 181.167C875.353 179.301 873.475 177.901 871.597 176.968C869.719 176.035 867.372 175.102 865.494 174.636C863.615 173.702 861.268 173.702 859.39 173.702C856.573 173.702 854.695 173.702 852.817 174.169C850.939 174.636 849.061 175.102 847.652 176.035C846.244 176.968 844.835 177.901 843.426 179.301C842.018 180.701 840.609 182.567 839.67 184.433H839.201V175.102ZM847.183 190.031C849.061 188.632 850.939 188.165 853.756 188.165C856.573 188.165 858.92 188.632 860.329 190.031C861.737 190.964 863.615 192.364 864.554 194.23C865.493 196.096 866.432 197.962 866.902 200.295C867.372 202.161 867.841 204.494 867.841 206.826V210.559C867.606 211.258 867.489 211.958 867.372 212.658C867.254 213.358 867.137 214.058 866.902 214.758C866.902 215.691 866.485 216.624 866.067 217.557C865.859 218.023 865.65 218.49 865.494 218.956C864.555 220.356 863.615 221.756 862.676 222.689C861.737 223.622 860.329 224.555 858.92 225.021C857.512 225.488 855.634 225.954 853.756 225.954C851.878 225.954 850 225.488 848.591 225.021C847.183 224.555 845.774 223.622 844.835 222.689C843.426 221.756 842.487 220.356 842.018 218.956L840.609 214.758C840.14 213.358 839.67 211.958 839.67 210.559V206.826C839.67 204.96 840.14 202.628 840.609 200.295C841.079 197.962 842.018 196.096 842.957 194.23C843.896 192.83 845.305 190.964 847.183 190.031ZM897.883 175.102H941.078V188.632H914.316V239.018H897.883V175.102ZM963.152 214.757V212.424V211.958H1006.35C1006.35 206.359 1005.88 200.761 1004.94 196.096C1004 191.43 1002.12 187.232 999.774 183.966C997.427 180.7 994.14 177.901 990.384 176.035C986.158 174.169 981.463 173.236 975.829 173.236C970.665 173.236 965.969 174.169 962.213 176.035C958.457 177.901 955.171 180.234 952.823 183.499C950.006 186.765 948.128 190.031 947.189 194.23C945.78 198.428 945.311 202.627 945.311 206.826C945.311 212.891 946.25 218.489 947.659 222.688C949.067 226.887 951.415 230.619 954.232 233.418C957.049 236.218 960.335 238.084 964.091 239.483C967.848 240.883 972.073 241.35 976.299 241.35C979.585 241.35 982.402 240.883 985.219 240.416C988.036 239.484 990.383 238.551 992.73 237.618L992.732 237.617C995.079 236.684 996.957 235.285 998.366 233.885C999.774 232.485 1001.18 230.619 1002.12 229.22C1003.06 227.82 1004 225.954 1004.47 224.554C1004.62 223.969 1004.76 223.475 1004.9 223.03C1005.19 222.057 1005.41 221.316 1005.41 220.356H988.036C988.036 221.755 987.567 222.688 986.628 223.621C986.158 224.554 985.219 225.487 984.28 225.954C983.811 226.187 983.224 226.42 982.637 226.654C982.05 226.887 981.463 227.12 980.994 227.354C980.055 227.82 979.116 227.82 977.707 227.82C975.829 227.82 973.482 227.354 972.073 226.887C970.195 226.42 968.786 225.487 967.847 224.554C966.439 223.621 965.5 222.222 965.03 221.289C964.796 220.822 964.561 220.239 964.326 219.656C964.091 219.073 963.857 218.489 963.622 218.023C963.622 217.252 963.48 216.623 963.352 216.058C963.247 215.596 963.152 215.176 963.152 214.757ZM988.506 194.23C989.445 196.096 989.915 198.428 989.915 201.228H963.622C963.622 198.428 964.091 196.096 965.03 194.23C965.969 192.363 966.909 190.497 968.317 189.564C969.726 188.631 971.134 187.698 972.543 187.232C973.951 186.765 975.36 186.765 976.768 186.765C978.177 186.765 979.585 186.765 980.994 187.232C982.402 187.698 983.811 188.631 985.219 189.564C986.628 190.964 987.567 192.363 988.506 194.23ZM1018.55 175.102H1034.05V184.433C1034.99 182.567 1036.4 180.701 1037.8 179.301C1039.21 177.901 1040.62 176.968 1042.03 176.035C1043.44 175.102 1045.32 174.636 1047.2 174.169C1049.07 173.702 1050.95 173.702 1053.77 173.702C1055.65 173.702 1057.52 173.702 1059.87 174.636C1061.75 175.102 1064.1 176.035 1065.98 176.968C1067.85 177.901 1069.73 179.301 1071.61 181.167C1073.49 183.033 1074.9 184.899 1076.3 187.232C1077.71 189.565 1078.65 192.364 1079.59 195.63C1080.53 198.895 1081 202.628 1081 206.826C1081 211.958 1080.53 216.624 1079.12 220.822C1078.18 225.021 1076.3 228.754 1073.96 232.019C1071.61 235.285 1068.79 237.618 1065.51 239.017C1062.22 240.883 1057.99 241.816 1053.3 241.816C1051.89 241.816 1050.01 241.816 1048.6 241.35C1046.73 240.883 1045.32 240.417 1043.91 239.95C1043.44 239.639 1042.92 239.328 1042.4 239.017C1041.35 238.395 1040.31 237.773 1039.68 237.151C1038.27 235.752 1036.87 234.352 1035.93 232.486H1035.46V265.143H1018.55V175.102ZM1048.6 188.165C1045.79 188.165 1043.91 188.632 1042.03 190.031C1040.15 190.964 1038.74 192.83 1037.8 194.23C1036.87 196.096 1035.93 197.962 1035.46 200.295C1034.99 202.628 1034.52 204.96 1034.52 206.826V210.559C1034.52 211.958 1034.99 213.358 1035.46 214.758L1036.87 218.956C1037.34 220.356 1038.27 221.756 1039.68 222.689C1040.62 223.622 1042.03 224.555 1043.44 225.021C1044.85 225.488 1046.73 225.954 1048.6 225.954C1050.48 225.954 1052.36 225.488 1053.77 225.021C1055.18 224.555 1056.59 223.622 1057.52 222.689C1058.46 221.756 1059.4 220.356 1060.34 218.956C1060.5 218.49 1060.71 218.024 1060.91 217.558L1060.92 217.557C1061.33 216.624 1061.75 215.691 1061.75 214.758C1061.98 214.058 1062.1 213.358 1062.22 212.658C1062.34 211.958 1062.45 211.259 1062.69 210.559V206.826C1062.69 204.494 1062.22 202.161 1061.75 200.295C1061.28 197.962 1060.34 196.096 1059.4 194.23C1058.46 192.364 1056.59 190.964 1055.18 190.031C1053.3 188.632 1050.95 188.165 1048.6 188.165ZM645.316 148.51H634.475V262.063H645.316V148.51Z" fill="white"/>
</svg>
