<svg width="1180" height="414" viewBox="0 0 1180 414" fill="none" xmlns="http://www.w3.org/2000/svg">
<path d="M149.042 264.904C144.306 273.768 137.793 280.86 128.912 286.77C120.032 292.089 110.559 295.044 99.9022 295.044C85.1011 295.044 72.0761 289.725 60.8273 279.087C49.5784 268.45 44.25 255.448 44.25 240.673C44.25 225.898 49.5784 212.896 60.8273 202.849C71.4841 192.212 84.5091 186.893 99.3102 186.893C109.967 186.893 119.44 189.848 128.32 195.166C137.201 200.485 143.714 207.577 148.45 216.442L124.176 227.08C121.808 222.352 118.256 218.806 114.111 216.442C109.375 213.487 104.639 212.305 99.3102 212.305C91.6136 212.305 85.1011 215.26 79.1807 220.579C73.8523 226.489 70.892 232.99 70.892 240.673C70.892 248.356 73.8523 254.857 79.1807 260.767C84.5091 266.086 91.6136 269.04 99.3102 269.04C104.639 269.04 109.375 267.859 114.111 264.904C118.256 261.949 121.808 258.403 124.176 254.266L149.042 264.904Z" fill="white"/>
<path fill-rule="evenodd" clip-rule="evenodd" d="M244.953 188.665L286.989 292.68H257.386L251.466 277.314H210.615L204.694 292.68H175.684L217.719 188.665H244.953ZM231.336 222.943L220.087 253.674H243.177L231.336 222.943Z" fill="white"/>
<path d="M402.437 188.665H325.471V292.68H352.113V257.22H394.741V232.99H352.113V214.669H402.437V188.665Z" fill="white"/>
<path d="M444.473 188.665H524.399V214.669H471.115V229.444H514.926V253.674H471.115V267.267H524.399V292.68H444.473V188.665Z" fill="white"/>
<path d="M653.465 188.665H561.698V214.669H594.26V292.68H620.902V214.669H653.465V188.665Z" fill="white"/>
<path d="M693.723 188.665H773.649V214.669H720.365V229.444H764.177V253.674H720.365V267.267H773.649V292.68H693.723V188.665Z" fill="white"/>
<path fill-rule="evenodd" clip-rule="evenodd" d="M896.795 199.303C890.283 192.211 880.218 188.665 867.785 188.665H816.869V292.68H843.511V264.903H857.128L876.666 292.68H908.636L886.138 261.357C893.243 257.811 897.979 253.083 901.532 247.173C905.084 240.672 906.86 234.171 906.86 226.489C906.86 215.26 903.308 206.395 896.795 199.303ZM843.511 240.672V212.305H866.601C876.666 212.305 881.402 217.033 881.402 226.489C881.402 230.626 880.218 234.171 877.85 236.535C875.482 239.49 871.337 240.672 866.601 240.672H843.511Z" fill="white"/>
<path d="M976.721 292.68H950.079V188.665H976.721V292.68Z" fill="white"/>
<path fill-rule="evenodd" clip-rule="evenodd" d="M1096.91 292.68H1125.92L1083.88 188.665H1057.24L1015.2 292.68H1044.21L1050.13 277.314H1090.99L1096.91 292.68ZM1059.02 253.674L1070.26 222.943L1082.11 253.674H1059.02Z" fill="white"/>
</svg>
