<svg width="1180" height="414" viewBox="0 0 1180 414" fill="none" xmlns="http://www.w3.org/2000/svg">
<g clip-path="url(#clip0_11247_29)">
<g clip-path="url(#clip1_11247_29)">
<path d="M811.506 371.66C794.723 371.66 780.522 366.51 769.118 356.212C757.714 345.912 751.905 332.18 751.905 315.23C751.905 299.352 757.069 286.049 767.397 275.32C777.725 264.378 791.28 259.014 807.848 259.014C823.556 259.014 835.82 264.592 845.071 275.535C854.322 286.478 859.06 299.781 859.06 315.659V323.598H782.028C785.256 338.188 799.026 345.912 817.961 345.912C830.011 345.912 841.417 342.694 852.389 336.471V360.718C842.707 368.012 829.15 371.66 811.506 371.66ZM782.028 304.287H829.15C828.504 292.486 820.113 282.83 806.557 282.83C792.787 282.83 783.534 291.628 782.028 304.287Z" fill="white"/>
<path d="M672.061 371.612C657.43 371.612 645.381 366.248 635.698 355.52C626.231 344.577 621.497 331.274 621.497 315.181C621.497 299.303 626.231 286.001 635.698 275.272C645.381 264.329 657.43 258.966 672.061 258.966C687.338 258.966 698.957 264.329 707.348 274.843V218.627H737.687V368.822H707.348V355.734C699.387 366.248 687.553 371.612 672.061 371.612ZM680.668 345.22C692.502 345.22 702.4 338.354 707.348 329.128V301.235C702.4 292.009 692.502 285.357 680.668 285.357C672.276 285.357 665.176 288.146 659.797 293.94C654.418 299.733 651.62 306.813 651.62 315.181C651.62 323.764 654.418 330.844 659.797 336.638C665.176 342.431 672.276 345.22 680.668 345.22Z" fill="white"/>
<path d="M604.481 368.871H574.142V261.803H604.481V315.337V368.871Z" fill="white"/>
<path d="M604.481 368.871H574.142V261.803H604.481V315.337V368.871Z" fill="white"/>
<path d="M526.575 329.986V261.755H556.913V368.822H526.575V355.949C516.892 366.462 505.058 371.612 490.642 371.612C465.682 371.612 451.481 354.876 451.481 327.412V261.755H481.82V321.189C481.82 337.71 491.072 343.933 502.261 343.933C511.728 343.933 521.411 337.925 526.575 329.986Z" fill="white"/>
<path d="M406.926 274.243V261.798H437.264V356.422C437.264 395.687 405.42 413.067 375.081 413.067C357.438 413.067 343.452 410.063 332.908 403.84V376.591C344.312 383.457 357.438 386.89 371.854 386.89C388.421 386.89 406.926 380.667 406.926 357.923V351.272C398.535 361.356 386.7 366.506 371.423 366.506C356.792 366.506 344.743 361.356 335.491 351.058C326.238 340.758 321.505 327.884 321.505 312.65C321.505 297.416 326.238 284.757 335.491 274.458C344.743 264.158 356.792 259.009 371.423 259.009C386.7 259.009 398.535 264.158 406.926 274.243ZM380.245 340.329C392.08 340.329 401.977 334.107 406.926 325.739V299.991C401.977 291.623 392.08 285.401 380.245 285.401C363.247 285.401 351.843 297.201 351.843 312.865C351.843 328.528 363.677 340.329 380.245 340.329Z" fill="white"/>
<path d="M434.44 204.21C434.44 193.911 442.401 185.972 452.514 185.972C462.627 185.972 470.588 193.911 470.588 204.21C470.588 214.294 462.627 222.233 452.514 222.233C442.401 222.233 434.44 214.294 434.44 204.21Z" fill="white"/>
<path d="M570.716 204.21C570.716 193.911 578.677 185.972 588.79 185.972C598.903 185.972 606.864 193.911 606.864 204.21C606.864 214.294 598.903 222.233 588.79 222.233C578.677 222.233 570.716 214.294 570.716 204.21Z" fill="white"/>
<path d="M384.376 185.972C374.263 185.972 366.302 193.911 366.302 204.21C366.302 214.294 374.263 222.233 384.376 222.233C394.488 222.233 402.449 214.294 402.449 204.21C402.449 193.911 394.488 185.972 384.376 185.972Z" fill="white"/>
<path d="M520.651 185.972C510.538 185.972 502.577 193.911 502.577 204.21C502.577 214.294 510.538 222.233 520.651 222.233C530.764 222.233 538.725 214.294 538.725 204.21C538.725 193.911 530.764 185.972 520.651 185.972Z" fill="white"/>
<path d="M676.585 197.177C667.763 197.177 660.447 195.675 655.068 192.886V166.495C660.017 169.284 665.612 170.786 671.421 170.786C682.394 170.786 689.065 164.134 695.305 149.33L649.043 45.9092H681.749L710.151 116.287L737.047 45.9092H769.107L719.403 164.134C709.936 186.234 695.735 197.177 676.585 197.177Z" fill="white"/>
<path d="M573.934 119.74V71.2484H552.848V45.9297H573.934V16.5343H604.273V45.9297H634.826V71.2484H604.273V113.732C604.273 124.246 608.576 128.752 618.904 128.752C624.283 128.752 629.447 127.465 634.611 124.89V149.994C628.371 153.856 619.98 155.787 609.006 155.787C585.553 155.787 573.934 143.771 573.934 119.74Z" fill="white"/>
<path d="M535.832 152.983H505.494V45.9153H535.832V152.983Z" fill="white"/>
<path d="M445.446 155.787C421.992 155.787 402.627 148.492 387.135 133.901C371.643 119.096 363.897 100.429 363.897 77.6853C363.897 54.7266 371.643 36.0596 386.92 21.4692C402.412 6.87884 421.992 -0.416382 445.446 -0.416382C460.292 -0.416382 473.417 2.80209 485.252 9.02445V40.1364C473.632 32.412 460.507 28.5499 445.661 28.5499C431.245 28.5499 419.41 33.2703 409.728 42.4966C400.261 51.7227 395.527 63.3095 395.527 77.6853C395.527 92.0611 400.476 103.862 410.158 113.088C419.841 122.315 432.105 126.821 446.951 126.821C463.304 126.821 477.075 122.529 488.264 113.732V144.844C475.999 152.139 461.798 155.787 445.446 155.787Z" fill="white"/>
</g>
</g>
<defs>
<clipPath id="clip0_11247_29">
<rect width="1180" height="413.086" fill="white"/>
</clipPath>
<clipPath id="clip1_11247_29">
<rect width="538" height="414" fill="white" transform="translate(321.5 -0.540527)"/>
</clipPath>
</defs>
</svg>
