<svg width="1180" height="414" viewBox="0 0 1180 414" fill="none" xmlns="http://www.w3.org/2000/svg">
<path fill-rule="evenodd" clip-rule="evenodd" d="M423.716 209.749C423.716 152.728 471.741 106.464 530.932 106.464C590.123 106.464 638.148 152.728 638.148 209.749C638.148 266.77 590.123 313.035 530.932 313.035C471.741 313.035 423.716 266.77 423.716 209.749ZM441.07 209.749C441.07 257.569 481.293 296.317 530.932 296.317C580.572 296.317 620.795 257.569 620.795 209.749C620.795 161.93 580.572 123.181 530.932 123.181C481.293 123.181 441.07 161.93 441.07 209.749Z" fill="white"/>
<path fill-rule="evenodd" clip-rule="evenodd" d="M884.895 227.643C884.88 221.595 884.865 215.543 884.865 209.49C884.865 202.897 884.899 196.304 884.932 189.695L884.933 189.674C884.966 183.039 885 176.389 885 169.705C884.983 168.707 884.968 167.707 884.953 166.705C884.85 159.773 884.746 152.767 883.924 145.86C881.637 127.199 869.933 113.851 852.445 109.963C845.719 108.538 838.589 108.149 831.728 108.538C811.953 109.704 798.097 120.849 793.389 139.381C791.774 145.86 790.698 152.599 790.698 159.208C790.429 191.088 790.429 223.098 790.564 255.107C790.564 260.42 790.698 265.863 791.371 271.177C793.523 286.857 800.519 299.816 816.123 306.815C827.693 311.998 839.8 311.998 851.907 309.277C863.342 306.685 872.086 300.464 877.87 290.486C882.713 282.192 884.731 273.12 884.865 263.79C884.955 251.79 884.925 239.733 884.895 227.657V227.643ZM867.676 195.216V195.245C867.661 200.131 867.646 205.012 867.646 209.879C867.646 215.021 867.668 220.153 867.69 225.28L867.69 225.308C867.745 238.132 867.8 250.928 867.512 263.79C867.377 269.492 866.436 275.583 864.283 280.896C859.306 293.466 847.468 298.65 830.787 296.447C819.487 295.022 810.204 284.654 808.725 271.565C808.321 267.548 808.052 263.401 808.052 259.384C807.917 225.56 807.917 191.866 808.052 158.042C808.052 153.247 808.59 148.323 809.666 143.528C813.029 129.013 823.657 121.497 839.665 122.015C853.79 122.404 864.418 131.346 866.57 145.342C867.394 151.24 867.497 157.238 867.6 163.248L867.601 163.259C867.615 164.111 867.63 164.965 867.646 165.818C867.736 175.585 867.706 185.41 867.676 195.216Z" fill="white"/>
<path d="M740.792 242.148C740.792 251.478 740.792 254.459 740.523 263.79C740.389 269.492 739.447 275.583 737.295 280.896C732.317 293.466 720.479 298.65 703.798 296.447C692.498 295.022 683.216 284.654 681.736 271.565C681.332 267.548 681.063 263.401 681.063 259.384C681.063 248.104 681.048 236.839 681.034 225.579C681.004 203.073 680.974 180.586 681.063 158.042C681.063 153.247 681.602 148.193 682.678 143.528C686.041 129.013 696.668 121.627 712.677 122.015C726.802 122.404 737.564 131.346 739.582 145.342C740.658 152.081 740.792 171.261 740.792 177.222H758.146C758.146 172.556 758.011 153.636 756.935 145.86C754.514 127.199 742.945 113.851 725.457 109.963C718.73 108.538 711.601 108.149 704.74 108.538C685.099 109.704 671.243 120.849 666.4 139.381C664.786 145.86 663.71 152.599 663.71 159.208C663.508 183.222 663.533 207.235 663.558 231.194V231.213C663.567 239.184 663.575 247.15 663.575 255.107C663.575 260.42 663.71 265.863 664.382 271.176C666.535 286.987 673.396 299.946 689.135 306.814C700.569 311.869 712.811 311.998 724.918 309.277C736.353 306.685 745.097 300.464 750.882 290.486C755.725 282.192 757.742 273.12 757.877 263.79C758.011 254.459 758.012 251.478 758.012 242.148H740.792Z" fill="white"/>
<path d="M386.719 263.79C386.988 254.459 386.988 251.478 386.988 242.148H404.342C404.342 251.478 404.342 254.459 404.207 263.79C404.073 273.12 402.055 282.192 397.212 290.486C391.427 300.464 382.683 306.685 371.249 309.277C359.141 311.998 346.9 311.869 335.465 306.814C319.726 299.946 312.865 286.987 310.712 271.176C310.04 265.863 309.905 260.42 309.905 255.107C309.771 223.098 309.636 191.088 309.905 159.208C309.905 152.599 310.982 145.86 312.596 139.381C317.439 120.849 331.295 109.704 350.935 108.538C357.796 108.149 364.926 108.538 371.652 109.963C389.14 113.851 400.709 127.199 403.131 145.86C404.207 153.636 404.342 172.556 404.342 177.222H386.988C386.988 171.261 386.853 152.081 385.777 145.342C383.759 131.346 372.997 122.404 358.872 122.015C342.864 121.497 332.236 129.013 328.873 143.528C327.797 148.193 327.259 153.247 327.259 158.042C327.169 180.586 327.199 203.073 327.229 225.579C327.244 236.839 327.259 248.104 327.259 259.384C327.259 263.401 327.528 267.548 327.932 271.565C329.411 284.654 338.694 295.022 349.994 296.447C366.675 298.65 378.513 293.466 383.49 280.896C385.643 275.583 386.584 269.492 386.719 263.79Z" fill="white"/>
</svg>
