<svg width="1180" height="414" viewBox="0 0 1180 414" fill="none" xmlns="http://www.w3.org/2000/svg">
<path fill-rule="evenodd" clip-rule="evenodd" d="M263.935 134.358V131.987H278.163V359.606C278.163 383.316 271.049 392.8 254.449 392.8C235.478 392.8 230.735 376.203 230.735 352.493C230.735 319.298 235.478 302.701 263.935 297.959V283.733C259.192 290.846 254.449 293.217 247.335 293.217C221.25 293.217 221.25 245.797 221.25 210.231C221.25 160.44 221.25 127.245 249.706 127.245C254.449 127.245 259.192 129.616 263.935 134.358ZM252.078 278.991C263.935 278.991 263.935 260.023 263.935 236.312V184.15C263.935 158.068 263.935 141.471 252.078 141.471C237.85 141.471 237.85 160.44 237.85 184.15V236.312C237.85 260.023 240.221 278.991 252.078 278.991ZM244.964 350.122C244.964 369.09 247.335 378.574 254.449 378.574C263.935 378.574 263.935 366.719 261.563 359.606V312.185C244.466 312.185 244.703 329.518 244.917 345.091V345.099C244.941 346.803 244.964 348.485 244.964 350.122Z" fill="white"/>
<path fill-rule="evenodd" clip-rule="evenodd" d="M354.042 276.62V169.924C354.042 141.471 346.928 127.245 327.957 127.245C311.358 127.245 304.244 141.471 301.872 155.697C301.872 167.553 304.244 186.521 304.244 186.521H318.472C318.472 186.521 311.358 141.471 325.586 141.471C335.071 141.471 337.443 148.584 337.443 167.553V198.376C337.443 198.376 299.501 200.747 299.501 233.941V267.136C299.501 278.991 304.244 293.217 318.472 293.217C332.7 293.217 339.814 283.733 339.814 283.733C339.814 283.733 344.557 293.217 354.042 293.217C365.899 293.217 368.271 290.846 368.271 290.846V278.991C368.271 278.991 354.042 286.104 354.042 276.62ZM327.957 278.991C318.472 278.991 316.1 274.249 316.1 262.394V241.054C316.1 229.199 318.472 214.973 339.814 210.231V267.136C339.527 267.711 339.239 268.321 338.943 268.949C336.798 273.498 334.208 278.991 327.957 278.991Z" fill="white"/>
<path fill-rule="evenodd" clip-rule="evenodd" d="M418.069 127.245C406.212 127.245 399.098 134.358 399.098 139.1V129.616H382.498V392.8H399.098V283.733C401.469 288.475 403.841 293.217 418.069 293.217C437.04 293.217 441.783 269.507 441.783 243.425V174.666C441.783 150.955 437.04 127.245 418.069 127.245ZM425.183 252.91C425.183 264.765 425.183 281.362 413.326 281.362C406.212 281.362 399.098 274.249 399.098 262.394V155.697C401.469 143.842 408.583 139.1 413.326 139.1C425.183 139.1 425.183 153.326 425.183 165.182V252.91Z" fill="white"/>
<path d="M942.15 129.618V264.766C942.15 271.88 939.779 278.993 930.294 278.993C917.807 278.993 918.105 266.209 918.365 255.067L918.365 255.061C918.401 253.509 918.437 251.989 918.437 250.54V129.618H901.837V248.169C901.837 274.251 901.837 293.219 923.18 293.219C933.391 293.219 938.326 287.942 942.529 283.449C943.206 282.725 943.864 282.021 944.522 281.364V293.219H958.75V129.618H942.15Z" fill="white"/>
<path fill-rule="evenodd" clip-rule="evenodd" d="M463.134 167.553C463.134 141.471 472.619 127.245 491.59 127.245C510.561 127.245 520.047 143.842 522.418 167.553V212.602H479.733V255.281C479.733 271.878 484.476 281.362 493.962 281.362C503.447 281.362 505.819 269.507 505.819 255.281V231.57H522.418V248.168C522.418 274.249 515.304 293.217 493.962 293.217C474.991 293.217 463.134 281.362 463.134 252.91V167.553ZM477.362 200.747H505.819V169.924C505.819 158.068 503.447 141.471 491.59 141.471C482.105 141.471 477.362 148.584 477.362 165.182V200.747Z" fill="white"/>
<path fill-rule="evenodd" clip-rule="evenodd" d="M788.009 169.924V276.62C788.009 286.104 802.237 278.991 802.237 278.991V290.846C802.237 290.846 799.866 293.217 788.009 293.217C776.152 293.217 773.781 286.104 773.781 286.104C773.781 286.104 769.038 295.588 754.81 295.588C738.21 295.588 733.468 278.991 733.468 267.136V233.941C733.468 200.747 771.41 198.376 771.41 198.376V167.553C771.41 148.584 769.038 141.471 759.553 141.471C745.325 141.471 752.439 186.521 752.439 186.521H738.21C738.21 186.521 735.839 167.553 735.839 155.697C738.211 141.471 745.325 127.245 761.924 127.245C783.266 127.245 788.009 141.471 788.009 169.924ZM747.696 262.394C747.696 274.249 752.439 278.991 759.553 278.991C769.038 278.991 771.41 271.878 771.41 267.136V210.231C750.067 214.973 747.696 229.199 747.696 241.054V262.394Z" fill="white"/>
<path d="M861.52 129.618V200.749H830.692V129.618H814.092V293.219H830.692V212.604H861.52V293.219H878.119V129.618H861.52Z" fill="white"/>
<path fill-rule="evenodd" clip-rule="evenodd" d="M581.696 129.616V134.358C576.953 129.616 572.211 127.245 567.468 127.245C539.011 127.245 539.011 160.44 539.011 210.231C539.011 245.797 539.011 293.217 565.096 293.217C572.211 293.217 576.953 290.846 581.696 283.733V297.959C553.24 300.33 548.497 316.927 548.497 350.122C548.497 373.832 553.24 390.429 572.211 390.429C588.81 390.429 595.924 380.945 595.924 357.235V129.616H581.696ZM581.696 236.312C581.696 260.023 581.696 278.991 569.839 278.991C557.982 278.991 555.611 260.023 555.611 236.312V184.15C555.611 160.44 555.611 141.471 569.839 141.471C581.696 141.471 581.696 158.068 581.696 184.15V236.312ZM572.211 378.574C565.096 378.574 562.725 369.09 562.725 350.122C562.725 348.485 562.702 346.802 562.679 345.097V345.093C562.465 329.52 562.227 312.185 579.325 312.185V359.606C581.696 366.719 581.696 378.574 572.211 378.574Z" fill="white"/>
<path d="M657.579 129.618H674.179V293.219H657.579V205.506L631.499 293.219H614.899L643.355 205.491L614.899 129.618H631.499L657.579 205.478V129.618Z" fill="white"/>
<path d="M719.239 129.618H702.64L674.183 205.491L702.64 293.219H716.868L690.783 205.491L719.239 129.618Z" fill="white"/>
</svg>
