<svg width="1180" height="414" viewBox="0 0 1180 414" fill="none" xmlns="http://www.w3.org/2000/svg">
<path d="M665.935 146.515C653.202 138.807 635.273 136.436 619.906 136.436C612.405 136.436 565.865 141.805 576.878 152.181C582.293 157.287 582.256 165.127 582.256 170.99C582.256 206.632 581.049 242.471 581.049 277.98C581.049 284.041 575.707 285.655 574.024 288.916C572.231 292.441 574.39 295.603 585.33 294.417C590.745 293.825 609.625 298.107 609.625 290.465C609.625 285.622 598.136 285.392 599.343 277.585C599.343 244.546 600.038 206.73 600.038 173.691C600.038 160.614 602.38 147.866 623.455 145.988C641.128 144.407 652.653 151.72 659.532 160.285C670.691 174.152 672.704 190.425 669.118 205.742C667.105 214.175 661.032 227.549 647.091 230.283C633.224 232.984 626.272 226.264 624.516 225.177C620.931 222.97 612.844 222.146 611.82 227.845C609.991 238.155 632.31 240.791 644.384 239.802C689.534 236.014 708.743 172.439 665.935 146.515ZM536.52 282.493C533.41 284.107 529.605 285.392 524.702 286.018C515.445 287.171 503.627 285.853 491.699 284.898C482.918 284.206 485.003 275.279 485.003 272.117C485.003 245.271 485.186 216.843 485.186 189.7C485.186 187.394 487.894 185.714 489.321 184.364C492.394 181.399 492.943 178.764 485.186 178.336C484.125 178.171 479.881 179.093 476.661 178.665C468.721 177.611 460.745 179.192 467.258 183.936C470.331 186.143 470.039 187.757 470.039 191.38C470.039 222.673 469.161 250.409 469.161 281.11C469.161 285.754 466.709 286.94 465.502 289.411C461.843 296.954 482.076 294.022 482.552 294.022C491.004 294.022 502.603 293.989 512.262 294.286C530.337 294.846 536.374 295.208 544.789 290.596C553.68 285.688 548.009 276.531 536.52 282.493ZM432.682 281.11C431.255 281.472 426.937 284.14 424.998 284.799C416.253 287.895 408.972 287.105 397.739 285.425C388.848 284.107 379.591 284.502 377.067 281.406C374.725 278.408 373.335 239.078 376.774 237.365C380.213 235.685 391.849 236.08 400.52 236.508C403.776 236.673 405.46 238.518 406.96 239.671C413.18 244.513 412.924 236.772 412.924 231.139C412.924 225.473 410.545 221.784 407.069 226.363C403.081 231.6 391.117 229.294 384.019 228.965C377.03 228.636 375.786 224.485 376.006 219.511C376.591 206.203 374.835 199.088 376.701 189.371C377.725 183.969 409.045 186.373 415.412 186.209C424.156 186.209 424.998 191.347 431.95 193.225C443.475 196.354 435.06 176.952 422.986 179.061C415.631 180.345 406.411 179.884 398.983 179.983C394.812 180.049 357.858 178.665 355.479 181.037C352.15 185.089 362.285 188.547 362.285 193.785C361.626 201.789 360.895 260.654 360.895 281.834C360.895 286.709 356.577 287.368 356.577 290.662C356.577 297.909 372.64 292.375 378.75 292.573C398.691 293.265 417.241 298.436 434.511 291.354C443.073 287.862 441.865 278.903 432.682 281.11ZM783.824 288.488C779.689 286.117 778.116 283.712 777.018 280.22C769.773 263.487 762.456 246.786 755.284 230.019C751.662 221.521 734.795 178.27 729.014 178.27C724.44 178.27 719.976 193.818 718.769 196.651C707.097 226.198 695.133 254.527 684.302 284.206C683.095 287.5 677.021 287.928 677.021 291.848C677.021 295.603 684.961 294.088 688.693 294.088C693.596 294.088 693.779 295.076 698.243 295.076C702.706 295.076 703.987 289.971 698.426 288.027C692.205 285.853 696.633 279.693 697.657 276.037C699.23 270.437 714.342 232.391 722.062 209.003C723.086 205.94 726.233 198.166 726.233 198.166L748.552 251.562C737.466 248.4 707.499 245.863 709.402 258.908C709.768 261.444 712.622 262.367 715.878 262.004C718.513 261.708 721.806 259.534 725.026 257.458C731.721 253.077 742.991 256.141 747.125 256.898C754.333 258.216 759.309 277.816 762.09 283.185C765.493 289.773 758.797 286.907 758.797 291.453C758.797 297.02 771.274 292.836 776.469 294.385C779.36 295.274 784.08 295.076 785.287 294.121C786.86 292.836 787.08 290.333 783.824 288.488ZM988.976 288.719C988.647 287.533 987.22 286.907 985.171 285.622C981.22 283.119 940.789 175.931 933.215 175.931C927.215 175.931 925.934 182.717 921.507 195.333C917.08 207.949 898.932 253.275 888.065 282.987C886.857 286.281 881.186 286.479 881.186 289.509C881.186 293.956 890.37 291.914 892.821 291.749L902.408 292.738C906.871 292.738 907.311 287.731 902.591 286.446C897.468 285.029 899.81 279.496 901.859 273.665C909.981 250.343 930.435 195.827 930.435 195.827L953.229 249.289C938.63 245.501 915.36 243.722 913.531 255.515C913.055 258.545 916.787 262.432 921.909 259.995C923.556 259.237 926.263 256.108 928.13 255.021C933.911 251.595 946.863 253.736 951.29 254.527C958.498 255.844 963.474 275.444 966.255 280.813C969.658 287.434 962.633 284.931 962.962 289.476C963.328 294.286 972.914 291.321 977.707 291.848C985.354 292.705 989.891 292.145 988.976 288.719ZM872.185 188.251C860.916 177.941 844.634 176.985 829.889 178.27C818.949 179.225 794.215 185.714 802.081 191.084C806.728 194.246 805.996 197.54 805.996 201.822C805.996 227.845 805.118 254.494 805.118 280.418C805.118 286.281 793.812 296.328 808.265 294.154C812.18 293.561 826.01 296.822 826.01 291.288C826.01 287.731 820.083 287.599 820.961 281.9C820.961 257.788 821.473 233.676 821.473 209.563C821.473 200.043 820.998 187.823 836.072 185.023C848.659 182.684 858.94 187.987 864.429 195.992C872.515 207.817 873.356 225.968 866.477 236.673C862.087 243.525 853.123 246.72 842.987 241.647C836.036 238.155 829.962 237.497 829.157 242.635C828.169 248.894 841.012 251.035 852.427 250.508C882.906 249.125 897.761 211.638 872.185 188.251ZM213.698 137.259C210.698 138.116 182.927 146.351 194.599 153.038C214.979 164.731 200.636 235.257 202.831 269.317C202.831 272.15 202.795 274.983 202.795 277.816C202.795 283.877 197.453 285.491 195.77 288.752C193.94 292.243 196.136 295.439 207.076 294.253C210.698 293.858 230.895 294.714 232.029 294.78C328.623 300.083 350.906 227.812 327.343 177.875C308.353 137.589 256.251 125.17 213.698 137.259ZM311.975 219.709C310.439 242.602 303.633 263.124 278.68 276.663C260.971 286.215 239.127 284.173 233.676 284.206C225.809 284.206 221.162 281.801 221.162 274.06C222.406 251.134 220.906 203.733 220.906 168.454C220.906 142.233 250.25 140.685 269.02 147.537C289.473 154.948 314.903 176.162 311.975 219.709Z" fill="white"/>
</svg>
