<svg width="1180" height="414" viewBox="0 0 1180 414" fill="none" xmlns="http://www.w3.org/2000/svg">
<path d="M274.703 271.77C278.887 274.74 284.185 276.63 289.484 276.63C301.755 276.63 311.795 266.1 311.795 253.68V162.151C311.795 154.321 311.516 139.742 311.516 135.692H333.827C333.827 140.012 333.548 154.591 333.548 162.151V252.6C333.548 276.09 313.747 295.26 289.484 295.26C280.56 295.26 272.193 292.83 265.5 288.51L274.703 271.77Z" fill="white"/>
<path d="M394.069 162.151V237.48C394.069 250.17 396.3 259.08 402.436 265.29C409.687 272.85 422.237 276.63 436.181 276.63C453.751 276.63 465.186 271.77 469.927 267.72V162.421C469.927 154.591 469.648 140.012 469.648 135.962H491.959C491.959 140.282 491.68 154.861 491.68 162.421V276.09C484.708 285.27 466.301 295.26 436.181 295.26C414.986 295.26 397.137 290.13 385.982 278.52C377.615 269.88 372.595 259.35 372.595 242.07V162.151C372.595 154.321 372.316 139.742 372.316 135.692H394.627C394.348 139.742 394.069 154.591 394.069 162.151Z" fill="white"/>
<path d="M523.192 162.151C523.192 154.321 522.913 139.742 522.913 135.692H545.224C545.224 140.012 544.945 154.591 544.945 162.151V271.23H566.977C575.065 271.23 590.125 270.96 594.308 270.96V290.94C589.846 290.94 574.786 290.67 566.977 290.67H523.192V162.151Z" fill="white"/>
<path d="M648.133 135.692C648.133 140.012 647.854 154.591 647.854 162.151V263.94C647.854 271.77 648.133 286.35 648.133 290.4H625.822C625.822 286.08 626.101 271.5 626.101 263.94V162.151C626.101 154.321 625.822 139.742 625.822 135.692H648.133Z" fill="white"/>
<path d="M708.651 162.151V237.48C708.651 250.17 710.882 259.08 717.017 265.29C724.268 272.85 736.818 276.63 750.763 276.63C768.332 276.63 779.767 271.77 784.508 267.72V162.421C784.508 154.591 784.229 140.012 784.229 135.962H806.54C806.54 140.282 806.261 154.861 806.261 162.421V276.09C799.289 285.27 780.882 295.26 750.763 295.26C729.567 295.26 711.718 290.13 700.563 278.52C692.196 269.88 687.176 259.35 687.176 242.07V162.151C687.176 154.321 686.897 139.742 686.897 135.692H709.208C708.93 139.742 708.651 154.591 708.651 162.151Z" fill="white"/>
<path d="M850.046 254.491C855.903 264.48 866.5 274.47 881.281 274.47C897.736 274.47 907.497 265.02 907.497 252.871C907.497 236.671 893.831 226.951 879.05 216.961C861.201 204.811 841.679 192.121 841.679 169.442C841.679 148.382 858.134 132.992 882.397 132.992C903.592 132.992 916.7 144.602 925.624 154.862L908.891 167.012C903.035 159.452 894.947 151.622 882.397 151.622C869.847 151.622 863.154 159.452 863.154 168.362C863.154 181.861 876.54 189.961 891.879 199.951C909.728 211.831 929.25 225.871 929.25 250.711C929.25 275.82 910.843 293.37 881.281 293.37C855.903 293.37 839.727 278.52 831.361 264.21L850.046 254.491Z" fill="white"/>
</svg>
