<svg width="1180" height="414" viewBox="0 0 1180 414" fill="none" xmlns="http://www.w3.org/2000/svg">
<path d="M177 177.227H200.726V268.737H255.903V294.625H189.139C182.518 294.625 177 288.605 177 281.38V177.227Z" fill="white"/>
<path d="M826.433 177.227L851.815 221.176L876.644 177.227H904.785L863.402 249.472V294.625H839.676V249.472L798.293 177.227H826.433Z" fill="white"/>
<path d="M356.877 177.227H333.151V256.697C333.151 257.299 333.151 260.309 330.944 262.717C327.633 266.329 320.46 268.737 310.529 268.737C300.597 268.737 293.424 266.329 290.113 262.717C287.906 260.309 287.906 257.901 287.906 256.697V177.227H264.18V255.493C264.18 259.105 264.18 269.942 272.456 280.176C280.733 289.809 293.424 295.227 310.529 295.227C327.633 295.227 340.876 290.411 348.601 280.176C356.877 270.544 356.877 259.105 356.877 255.493V177.227Z" fill="white"/>
<path d="M1003 177.227V255.493C1003 259.105 1003 269.942 994.723 280.176C986.999 290.411 973.756 295.227 956.651 295.227C939.546 295.227 926.856 289.809 918.579 280.176C910.303 269.942 910.303 259.105 910.303 255.493V177.227H934.029V256.697C934.029 257.901 934.029 260.309 936.236 262.717C939.546 266.329 946.719 268.737 956.651 268.737C966.583 268.737 973.756 266.329 977.067 262.717C979.274 260.309 979.274 257.299 979.274 256.697V177.227H1003Z" fill="white"/>
<path d="M418.124 203.115C420.882 203.115 436.332 204.319 442.401 219.972L464.472 209.737C452.885 180.237 424.745 177.227 418.675 177.227H417.572C412.606 177.227 395.501 179.033 382.258 193.482C372.327 203.717 367.361 218.166 367.361 235.625V236.829C367.361 254.289 372.327 268.737 382.258 278.972C394.796 292.652 410.795 294.459 416.678 295.124C417.008 295.161 417.308 295.195 417.572 295.227H419.227C425.297 295.227 453.437 292.217 465.024 262.717L442.953 252.482C436.884 268.135 420.882 269.34 418.675 269.34C417.02 269.34 406.536 268.737 399.363 260.911C394.397 255.493 391.639 247.064 391.639 236.829C391.087 205.523 412.606 203.115 418.124 203.115Z" fill="white"/>
<path d="M540.065 177.227H573.171L530.685 225.993L579.24 294.625H549.445L513.58 244.656L498.682 261.513V294.625H474.956V177.227H498.682V224.186L540.065 177.227Z" fill="white"/>
<path d="M583.654 190.472V281.982C583.654 289.207 589.172 295.227 595.793 295.227H663.661V269.34H607.38V249.472H657.591V222.982H607.38V203.115H663.109V177.227H595.793C589.172 177.227 583.654 183.248 583.654 190.472Z" fill="white"/>
<path d="M675.8 281.982V190.472C675.8 183.248 681.318 177.227 687.939 177.227H755.255V203.115H699.526V222.982H749.737V249.472H699.526V269.34H755.807V295.227H687.939C681.318 295.227 675.8 289.207 675.8 281.982Z" fill="white"/>
</svg>
