<svg width="1180" height="414" viewBox="0 0 1180 414" fill="none" xmlns="http://www.w3.org/2000/svg">
<g clip-path="url(#clip0_9931_32)">
<path d="M767.95 114.369C772.451 114.369 775.836 117.751 775.836 122.248C775.836 126.477 772.451 129.821 767.95 129.821C763.72 129.821 760.373 126.438 760.373 122.248C760.373 117.751 763.758 114.369 767.95 114.369Z" fill="white"/>
<path d="M794.913 114.369C799.414 114.369 802.798 117.751 802.798 122.248C802.798 126.477 799.414 129.821 794.913 129.821C790.682 129.821 787.336 126.438 787.336 122.248C787.336 117.751 790.721 114.369 794.913 114.369Z" fill="white"/>
<path d="M329.889 144.12C373.391 144.12 408.778 179.06 408.778 222.111C408.778 265.162 373.391 300.102 329.889 300.102C286.386 300.102 251 265.162 251 222.072C251 178.983 286.386 144.12 329.889 144.12ZM329.889 284.65C364.852 284.65 392.508 256.59 392.508 222.072C392.508 187.555 364.852 159.533 329.889 159.533C294.925 159.533 267.309 187.593 267.309 222.072C267.309 256.551 294.964 284.65 329.927 284.65H329.889Z" fill="white"/>
<path d="M422.086 147.118H472.666V162.532H438.356V297.066H422.048V147.118H422.086Z" fill="white"/>
<path d="M546.439 144.12C589.941 144.12 625.328 179.06 625.328 222.111C625.328 265.162 589.941 300.102 546.439 300.102C502.936 300.102 467.55 265.162 467.55 222.111C467.55 179.06 502.936 144.12 546.439 144.12ZM546.439 284.65C581.402 284.65 609.057 256.59 609.057 222.072C609.057 187.555 581.402 159.495 546.439 159.495C511.475 159.495 483.82 187.555 483.82 222.072C483.82 256.59 511.475 284.65 546.439 284.65Z" fill="white"/>
<path d="M678.484 253.592H654.906V297.066H638.598V147.118H654.906V238.178H678.484V147.118H694.793V297.066H678.484V253.592Z" fill="white"/>
<path d="M867.61 147.118H883.918V165.107L882.649 218.037L912.651 147.118H929.382L896.996 223.38L929.382 297.066H912.458L882.88 229.145L883.957 277.155V297.066H867.648V147.118H867.61Z" fill="white"/>
<path d="M551.17 199.548C557.17 203.315 559.67 211.079 557.17 217.537C555.747 221.227 553.362 224.302 550.901 227.377C548.977 229.76 546.977 232.067 545.285 234.604C543.285 237.602 541.9 240.792 541.669 244.674C538.323 242.137 536.054 239.101 535.131 235.18C534.246 231.375 534.938 227.762 536.784 224.341C538.631 220.92 541.054 217.96 543.477 214.962C544.554 213.655 545.593 212.348 546.593 210.964C549.093 207.62 550.978 204.007 551.17 199.548Z" fill="white"/>
<path d="M782.144 144.12C738.641 144.12 703.255 179.06 703.255 222.111C703.255 265.162 738.641 300.102 782.144 300.102C805.491 300.102 826.492 290.031 840.954 274.079L829.108 263.624C817.684 276.539 800.991 284.688 782.182 284.688C750.18 284.688 724.333 261.164 720.179 230.721H860.609C860.917 227.915 861.109 225.032 861.109 222.149C861.109 179.098 825.723 144.158 782.22 144.158L782.144 144.12ZM719.948 214.961C723.448 183.826 749.642 159.572 782.144 159.572C814.645 159.572 840.8 183.826 844.339 214.961H719.986H719.948Z" fill="white"/>
</g>
<defs>
<clipPath id="clip0_9931_32">
<rect width="678.344" height="185.695" fill="white" transform="translate(251 114.369)"/>
</clipPath>
</defs>
</svg>
