<svg width="1180" height="414" viewBox="0 0 1180 414" fill="none" xmlns="http://www.w3.org/2000/svg">
<path fill-rule="evenodd" clip-rule="evenodd" d="M431.015 95.6785C432.824 148.079 392.828 181.327 351.661 210.055C355.643 212.914 359.082 219.105 363.405 226.889C373.405 244.894 388.139 271.422 425.271 284.944C432.717 285.482 435.589 315.286 435.908 321.42C395.487 343.477 352.193 247.069 344.109 227.486C343.43 228.356 343.753 238.272 344.127 249.74V249.747C344.631 265.22 345.226 283.516 343.577 286.235C339.429 292.691 329.11 284.944 331.451 280.963C331.746 278.993 331.713 263.425 331.681 247.706V247.612C331.654 235.017 331.628 222.344 331.77 216.511C311.878 212.207 306.56 190.149 311.453 176.162C316.874 175.359 321.31 176.843 325.474 178.236C328.009 179.084 330.444 179.899 332.94 180.143C334.06 177.996 334.396 165.016 334.726 152.256C334.992 141.986 335.254 131.858 335.919 127.635C333.294 127.454 331.907 130.69 330.576 133.796C329.533 136.229 328.525 138.581 326.983 139.148C321.558 140.224 318.048 115.907 318.261 111.173C318.85 109.98 320.989 106.934 323.586 103.236C328.953 95.5921 336.277 85.1617 335.919 82.5515C335.599 79.6462 333.578 60.6012 334.429 60.0635C336.663 55.8671 350.492 66.4114 350.598 72.5444C350.637 72.715 350.671 72.8907 350.703 73.0686C350.736 73.2595 350.766 73.4526 350.796 73.6457C351.04 75.2045 351.284 76.7616 353.257 76.8486C353.427 76.8676 353.679 76.8014 353.999 76.674C354.459 76.4916 355.061 76.1823 355.773 75.8163L355.799 75.8028C357.377 74.9906 359.488 73.9044 361.767 73.2977C365.49 72.1144 396.019 70.9306 404.529 70.9306C421.442 72.4372 429.42 85.3486 431.015 95.6785ZM349.534 115.153C349.853 124.73 346.13 179.282 345.386 180.251C356.023 187.245 417.825 124.407 409.847 108.913C403.252 99.7672 359.639 103.641 349.534 115.153Z" fill="white"/>
<path d="M545.791 177.461C551.854 168.423 565.895 158.201 570.469 155.511C577.064 153.682 579.192 161.214 580.256 166.056C581.622 171.91 581.652 180.777 581.677 188.15C581.685 190.533 581.693 192.759 581.745 194.677C582.489 219.532 581.213 306.364 578.447 308.408C570.198 307.283 566.068 300.44 564.931 298.555C564.843 298.411 564.774 298.295 564.721 298.214C564.673 298.138 564.638 298.092 564.619 298.079C563.449 279.034 561.64 218.456 566.108 199.088C559.194 203.07 547.28 215.981 545.153 243.527C545.362 247.872 543.405 248.041 539.788 248.354L539.621 248.369C536.643 248.153 536.111 247.615 535.685 244.818C535.011 241.567 534.792 240.513 534.609 239.453C534.417 238.338 534.264 237.216 533.664 233.52C533.396 231.284 533.456 227.269 533.528 222.471C533.829 202.567 534.332 169.176 512.39 193.278C508.63 198.009 507.242 204.18 505.84 210.41C505.616 211.407 505.391 212.405 505.157 213.399C505.157 216.735 505.901 246.539 506.327 247.508C503.242 248.476 501.54 248.045 499.519 246.862C495.689 236.425 478.67 166.379 488.563 163.151C492.636 162.94 494.556 167.398 496.337 171.533L496.434 171.758C500.583 154.22 545.153 139.371 545.791 177.461Z" fill="white"/>
<path fill-rule="evenodd" clip-rule="evenodd" d="M611.955 280.644C588.554 268.916 583.873 248.257 583.873 222.541C588.341 202.635 634.719 152.495 663.971 157.121C674.121 157.31 671.311 182.231 670.024 193.638C669.841 195.262 669.689 196.612 669.609 197.578C656.844 213.18 628.017 237.605 605.998 243.738C601.993 250.556 619.697 248.753 623.851 248.331L624.241 248.291L624.472 248.269L624.614 248.257C624.618 248.253 624.752 248.183 625.007 248.049L625.061 248.021C631.943 244.434 715.999 200.624 728.859 165.729C733.645 163.684 737.688 164.545 740.666 170.571C741.137 173.727 741.282 176.784 741.426 179.816C741.542 182.262 741.657 184.691 741.942 187.141C754.494 193.489 773.322 244.491 775.237 254.39C786.781 250.306 804.723 239.367 821.746 228.989C839.702 218.041 856.634 207.718 863.952 206.724C863.147 212.474 860.667 217.594 858.391 222.292C856.153 226.914 854.112 231.128 854.059 235.13C852.676 235.13 785.236 282.58 774.705 293.986C770.122 292.477 763.884 276.468 757.811 260.878C751.759 245.348 745.871 230.234 741.942 230.288C735.188 231.786 735.516 259.823 735.646 270.92L735.662 272.342C735.672 273.32 735.676 274.095 735.667 274.618C734.3 280.147 733.345 279.989 730.325 279.489C729.583 279.366 728.716 279.222 727.689 279.137C720.562 267.625 717.158 237.282 720.349 221.573C715.876 221.078 705.558 229.519 692.484 240.214C668.561 259.785 635.41 286.906 611.955 280.644ZM638.868 191.337C631.741 193.274 605.679 210.598 608.445 216.192C612.044 212.268 616.65 209.279 621.405 206.192C627.47 202.255 633.778 198.161 638.548 191.768C638.655 191.66 638.761 191.445 638.868 191.337Z" fill="white"/>
<path fill-rule="evenodd" clip-rule="evenodd" d="M373.255 216.305C374.637 231.046 382.615 253.427 397.826 256.439C416.016 258.591 461.969 231.369 465.692 224.913C470.585 222.546 478.882 252.566 478.882 252.889L479.123 253.167C484.414 259.272 491.326 267.248 491.222 249.338C489.149 242.779 487.036 234.99 484.78 226.675C478.008 201.711 469.949 172.005 457.821 156.588C449.243 152.202 436.489 155.59 426.886 158.14L425.77 158.436C424.936 158.656 424.13 158.867 423.356 159.063C411.761 161.968 376.126 201.349 373.255 216.305ZM449.417 186.07L452.183 185.64C478.669 187.684 404.315 232.445 398.146 223.299C396.125 207.482 434.419 190.482 449.417 186.07Z" fill="white"/>
<path d="M822.369 110.528C822.08 111.78 821.696 113.257 821.278 114.866C818.989 123.678 815.662 136.487 821.081 138.398C825.346 137.454 830.075 135.571 834.679 133.739L834.688 133.735L834.694 133.734C841.107 131.18 847.277 128.724 851.61 129.037L851.531 129.145C849.103 132.494 841.599 142.843 840.547 145.822C836.513 145.822 831.866 146.937 827.862 147.897L827.854 147.899C826.581 148.204 825.374 148.494 824.272 148.728C822.145 148.943 820.974 150.879 820.336 152.708C819.978 153.837 819.52 155.156 819.023 156.589C817.006 162.396 814.335 170.085 815.018 174.659C815.122 175.397 818.725 174.662 822.349 173.923C826.12 173.155 829.912 172.382 829.803 173.26C827.483 178.444 823.074 184.495 819.035 190.039C814.188 196.692 809.873 202.615 810.337 205.432C812.751 210.739 813.715 209.764 815.579 207.876L815.656 207.799C822.434 201.036 826.275 196.918 829.918 193.01C834.623 187.965 839 183.27 848.95 173.69C852.884 170.848 857.77 171.342 862.728 171.844C866.216 172.197 869.739 172.553 872.99 171.753C873.088 171.437 873.179 171.176 873.261 170.948C873.301 170.837 873.339 170.735 873.374 170.639C873.665 169.853 873.812 169.454 873.735 168.202C874.48 160.456 875.118 155.075 876.394 147.436C875.701 143.863 872.388 144.301 869.119 144.733C866.876 145.029 864.653 145.323 863.311 144.316C869.48 135.493 882.777 116.34 882.67 107.302C878.46 98.0748 846.332 104.138 830.359 107.152C826.961 107.793 824.294 108.297 822.783 108.486C822.69 109.067 822.548 109.755 822.369 110.528Z" fill="white"/>
<path d="M782.575 110.323C791.829 107.633 813.423 103.007 817.571 105.481C817.498 117.553 811.558 133.803 807.982 143.585C806.395 147.928 805.273 150.996 805.338 151.856C805.338 152.303 806.242 152.017 807.227 151.707C808.379 151.343 809.642 150.945 809.7 151.641C809.168 157.344 806.296 174.237 803.956 174.667L797.573 176.927C797.654 179.061 792.105 197.53 789.278 206.94C788.398 209.867 787.782 211.918 787.68 212.326C787.162 213.725 785.871 212.851 784.206 211.723C783.822 211.463 783.419 211.19 783 210.928C781.493 206.954 782.41 199.317 783.187 192.838C783.946 186.511 784.573 181.289 782.681 181.661C781.185 181.993 779.689 182.972 778.188 183.952C775.315 185.831 772.426 187.719 769.491 185.104C767.647 183.435 765.361 172.008 764.57 168.054C764.494 167.674 764.432 167.362 764.385 167.135C764.107 165.506 763.779 164.353 763.528 163.474C762.819 160.987 762.735 160.693 766.193 157.989C768.352 157.689 770.265 157.472 772.049 157.269C777.297 156.674 781.435 156.204 787.468 154.116C787.97 149.549 790.639 143.786 792.896 138.917C793.51 137.59 794.094 136.33 794.595 135.178C789.276 137.653 770.767 146.154 767.683 148.521C767.399 148.712 767.072 148.973 766.711 149.26C763.414 151.887 757.364 156.707 757.364 130.229C757.364 119.34 771.948 114.172 779.272 111.576C780.706 111.068 781.861 110.658 782.575 110.323Z" fill="white"/>
</svg>
