<svg width="1180" height="414" viewBox="0 0 1180 414" fill="none" xmlns="http://www.w3.org/2000/svg">
<path d="M261 124.086V286.342H291.25V128.83H329.063C337.571 128.83 375.384 132.626 375.384 175.325C375.384 206.637 355.532 222.768 320.555 222.768L298.813 222.767C306.376 263.568 339.462 286.341 385.783 286.341H402.798V281.596H386.728C344.79 281.596 315.161 260.414 308.867 226.563H350.805C398.772 226.563 404.039 186.712 405.284 177.29C405.438 176.128 405.53 175.429 405.634 175.325C405.634 125.984 351.751 124.086 351.751 124.086H261Z" fill="white"/>
<path d="M819.705 173.027L840.483 124.086H834.811L816.535 166.468L796.053 124.086H765.803L802.195 199.721L779.982 251.234L719.481 124.086H688.286L769.583 291.086L805.477 206.541L846.155 291.086L918 124.086H912.328L857.499 251.234L819.705 173.027Z" fill="white"/>
<path fill-rule="evenodd" clip-rule="evenodd" d="M607.934 286.342H640.074L558.777 124.086H526.636L542.795 156.338L478.424 286.341H484.096L509.463 235.104H582.261L607.934 286.342ZM512.281 229.411H579.408L545.644 162.023L512.281 229.411Z" fill="white"/>
</svg>
