<svg width="1180" height="414" viewBox="0 0 1180 414" fill="none" xmlns="http://www.w3.org/2000/svg">
<path d="M767.966 265.381C737.416 263.014 710.283 234.966 707.363 202.734C704.442 170.5 726.838 146.29 757.388 148.656C787.938 151.022 815.071 179.07 817.991 211.303C820.912 243.535 798.516 267.748 767.966 265.381ZM770.773 145.46C728.705 141.754 690.986 166.245 686.525 200.166C682.064 234.086 712.552 264.587 754.62 268.293C796.686 271.999 834.405 247.508 838.866 213.588C843.327 179.667 812.84 149.166 770.773 145.46Z" fill="white"/>
<path d="M490.67 266.903H511.025V150.197H490.67V266.903Z" fill="white"/>
<path d="M309.749 219.649C298.212 210.162 277.384 205.226 262.96 201.708C253.912 199.502 244.1 197.43 236.225 192.209C228.53 187.109 223.922 180.12 226.469 170.289C229.923 156.965 243.72 151.018 254.967 148.69C275.618 144.414 295.731 151.739 305.926 168.271H311.572L311.161 152.411C305.82 150.038 299.437 148.231 291.768 146.905C276.485 144.265 261.007 143.923 245.761 145.887C238.844 146.78 228.704 148.554 220.563 153.655C214.185 157.651 208.508 164.549 208.219 172.5C207.907 181.078 213.617 189.076 220.766 192.95C229.008 197.416 245.066 201.422 258.035 204.17C266.262 205.914 276.421 207.76 284.76 211.399C295.361 216.024 302.932 226.884 300.837 238.883C298.656 251.366 287.837 262.024 272.299 264.134C261.061 265.66 251.485 265.558 240.368 263.118C226.74 260.126 214.865 247.912 209.672 234.961C208.339 235.235 207.005 235.511 205.672 235.787C205.875 241.834 206.079 247.883 206.282 253.93C206.352 255.988 208.461 257.292 210.333 258.15C234.034 269.017 264.127 271.042 289.286 264.214C297.504 261.982 306.512 258.473 311.918 251.616C320.06 241.285 320.502 228.492 309.749 219.649Z" fill="white"/>
<path d="M965.738 219.649C954.201 210.162 933.373 205.226 918.95 201.708C909.901 199.502 900.089 197.43 892.214 192.209C884.52 187.109 879.911 180.12 882.458 170.289C885.913 156.965 899.709 151.018 910.956 148.69C931.607 144.414 951.719 151.739 961.915 168.271H967.561L967.15 152.411C961.808 150.038 955.426 148.231 947.758 146.905C932.474 144.265 916.997 143.923 901.75 145.887C894.833 146.78 884.693 148.554 876.552 153.655C870.174 157.651 864.497 164.549 864.208 172.5C863.897 181.078 869.606 189.076 876.755 192.95C884.997 197.416 901.055 201.422 914.024 204.17C922.251 205.914 932.41 207.76 940.75 211.399C951.35 216.024 958.922 226.884 956.826 238.883C954.646 251.366 943.826 262.024 928.289 264.134C917.05 265.66 907.474 265.558 896.357 263.118C882.727 260.126 870.854 247.912 865.661 234.961C864.328 235.235 862.994 235.511 861.661 235.787C861.864 241.834 862.069 247.883 862.272 253.93C862.341 255.988 864.45 257.292 866.322 258.15C890.023 269.017 920.117 271.042 945.276 264.214C953.493 261.982 962.501 258.473 967.907 251.616C976.05 241.285 976.491 228.492 965.738 219.649Z" fill="white"/>
<path d="M426.035 203.098C422.504 205.056 418.676 206.302 414.723 207.06C407.495 208.445 399.321 208.465 391.99 207.06C388.037 206.302 384.209 205.056 380.678 203.098C377.143 201.138 373.917 198.557 371.225 195.604V159.321C373.186 157.311 375.469 155.59 378.06 154.335C385.701 150.637 394.212 148.343 402.894 147.985C420.563 147.256 443.191 157.642 443.332 177.793C443.264 187.577 435.801 197.684 426.035 203.098ZM445.572 154.293C440.803 151.946 435.683 150.116 430.813 148.861C412.555 144.157 394.165 144.155 375.901 148.861C374.362 149.257 372.795 149.731 371.225 150.241V150.199H350.87V266.907H371.225V205.344C372.795 205.854 374.362 206.328 375.901 206.724C394.131 211.422 412.582 211.422 430.813 206.724C435.683 205.469 440.803 203.642 445.572 201.293C457.028 195.651 464.281 186.918 464.637 177.793C464.281 168.668 457.028 159.934 445.572 154.293Z" fill="white"/>
<path d="M579.72 203.098C576.185 201.138 572.959 198.557 570.267 195.604V159.321C572.228 157.311 574.511 155.59 577.102 154.335C584.743 150.637 593.254 148.343 601.936 147.985C619.593 147.256 642.233 157.66 642.374 177.793C642.306 187.577 634.843 197.684 625.077 203.098C621.546 205.056 617.718 206.302 613.765 207.06C606.537 208.445 598.363 208.465 591.032 207.06C587.079 206.302 583.251 205.056 579.72 203.098ZM617.106 209.232C621.364 208.65 625.616 207.817 629.855 206.724C634.726 205.469 639.846 203.642 644.614 201.293C656.07 195.651 663.323 186.918 663.679 177.793C663.323 168.668 656.07 159.934 644.614 154.293C639.846 151.946 634.726 150.116 629.855 148.861C611.598 144.157 593.207 144.155 574.943 148.861C573.404 149.257 571.839 149.731 570.267 150.241V150.199H549.912V210.127V266.907H570.267V210.127V205.344C571.839 205.854 573.404 206.328 574.943 206.724C579.469 207.892 584.008 208.767 588.555 209.354L645.069 266.907H674.745L617.106 209.232Z" fill="white"/>
</svg>
