<svg width="1180" height="414" viewBox="0 0 1180 414" fill="none" xmlns="http://www.w3.org/2000/svg">
<g clip-path="url(#clip0_10820_26)">
<path d="M279.188 269.887L276.708 275.995C286.797 273.025 305.663 271.702 305.663 287.566C305.663 306.399 278.892 309.538 253.389 306.399V291.366C275.06 294.505 282.499 291.366 282.499 286.074C282.499 282.104 278.272 280.781 265.295 283.765L255.545 274.18L257.856 269.887C217.333 268.564 195 259.133 195 227.575H238.003C238.003 233.206 243.301 236.992 270.593 236.992C296.068 236.992 299.872 235.345 299.872 231.052C299.872 226.097 296.068 225.422 268.874 224.605C216.614 222.958 196.592 214.358 196.592 187.417C196.592 161.969 221.574 151.074 267.226 151.074C312.314 151.074 337.859 161.969 337.859 191.556H294.912C294.912 185.447 284.979 184.124 263.914 184.124C243.737 184.124 239.609 185.109 239.609 189.571C239.609 194.033 243.737 193.864 268.874 194.864C314.54 196.679 342.819 199.818 342.819 230.053C342.875 259.64 320.218 268.718 279.188 269.887Z" fill="white"/>
<path d="M329.63 152.721H379.312L410.084 195.68L440.857 152.721H490.468L431.586 230.391V268.395H388.583V230.391L329.63 152.721Z" fill="white"/>
<path d="M642.922 152.721V268.395H586.675L536.726 200.142V268.395H493.723V152.721H549.956L599.919 220.974V152.721H642.922ZM550.125 141.179H520.353C520.353 124.655 525.806 106.483 543.503 106.483C560.552 106.483 564.511 118.053 578.249 118.053C584.364 118.053 586.52 114.745 586.52 108.2H616.292C616.292 124.725 610.825 142.911 593.128 142.911C576.093 142.911 572.12 131.34 558.396 131.34C552.267 131.242 550.125 134.55 550.125 141.179Z" fill="white"/>
<path d="M845.368 235.345C845.368 262.441 822.049 270.041 781.357 270.041C741.158 270.041 714.035 262.441 714.035 224.605H757.037C757.037 233.698 766.9 233.698 783.005 233.698C798.237 233.698 802.365 233.698 802.365 227.744C802.365 220.481 798.237 220.481 766.478 220.481V200.649C798.237 200.649 802.365 200.649 802.365 193.371C802.365 187.417 798.237 187.417 783.005 187.417C766.971 187.417 757.037 187.417 757.037 196.51H714.035C714.035 158.675 741.158 151.074 781.357 151.074C822.049 151.074 845.368 158.675 845.368 185.771C845.368 197.172 839.422 205.111 828.995 210.558C839.422 216.005 845.368 223.944 845.368 235.345Z" fill="white"/>
<path d="M919.989 232.037H983.394V268.395H853.765V248.562C853.765 205.265 942.096 209.404 942.096 193.203C942.096 188.248 937.953 187.417 923.567 187.417C908.35 187.417 898.417 187.418 898.417 198.171H855.414C855.414 158.675 882.537 151.074 921.905 151.074C961.78 151.074 985.099 158.675 985.099 187.417C985 224.929 928.259 219.144 919.989 232.037Z" fill="white"/>
</g>
<defs>
<clipPath id="clip0_10820_26">
<rect width="790" height="201" fill="white" transform="translate(195 106.455)"/>
</clipPath>
</defs>
</svg>
